<?xml version="1.0" ?><svg data-name="Layer 1" id="Layer_1" viewBox="0 0 100.97 100.97" xmlns="http://www.w3.org/2000/svg"><path d="M300.5,350.49A50.49,50.49,0,1,1,351,300,50.55,50.55,0,0,1,300.5,350.49Zm0-95.26A44.77,44.77,0,1,0,345.27,300,44.83,44.83,0,0,0,300.5,255.23Z" transform="translate(-250.01 -249.51)"/><path d="M297.23,329.71a3,3,0,0,1-3-2.45c-3.88-18.28-14-39.34-21.15-48.64-.41-.54,2.11-.93,4.23-1.15a4.5,4.5,0,0,1,4.27,2c5.91,9.1,12.64,25.86,15.93,39.83A87.07,87.07,0,0,1,308.28,293c.25-.38.91-.77,1.17-1.15a41.45,41.45,0,0,1,6.89-8.18c1-.82,2.37-1.5,3.24-1s.43,1.67-.58,2.83a51.69,51.69,0,0,0-6.51,9.27c-.17.34.2-.31,0,0-7.91,12.64-10.6,26.81-11.37,32.37a3,3,0,0,1-3,2.6Z" transform="translate(-250.01 -249.51)"/><path d="M313.59,297.67a8.28,8.28,0,0,1-4.79-1.43,9,9,0,0,1-3.54-6.95,11.94,11.94,0,0,1,4-9.66c3.3-3,7-3.51,10.3-4.27a29.11,29.11,0,0,0,5.47-1.62,2,2,0,0,1,1.83.13,2,2,0,0,1,.95,1.57c0,.39.91,9.74-3.31,15.87h0a14.45,14.45,0,0,1-9.07,6.19A10.61,10.61,0,0,1,313.59,297.67ZM324,278.2c-1.2.36-2.38.62-3.53.89-3.19.72-5.94,1.35-8.44,3.61a7.87,7.87,0,0,0-2.66,6.34,5,5,0,0,0,1.78,3.81,4.75,4.75,0,0,0,3.55.58A10.42,10.42,0,0,0,321.1,289h0C323.28,285.8,323.87,281.15,324,278.2Z" transform="translate(-250.01 -249.51)"/></svg>