<?xml version="1.0" encoding="UTF-8" standalone="no"?>
<svg width="60px" height="60px" viewBox="0 0 60 60" version="1.1" xmlns="http://www.w3.org/2000/svg" xmlns:xlink="http://www.w3.org/1999/xlink" xmlns:sketch="http://www.bohemiancoding.com/sketch/ns">
    <!-- Generator: Sketch 3.4 (15575) - http://www.bohemiancoding.com/sketch -->
    <title>brick-wall</title>
    <desc>Created with Sketch.</desc>
    <defs></defs>
    <g id="Construction" stroke="none" stroke-width="1" fill="none" fill-rule="evenodd" sketch:type="MSPage">
        <g id="Icon-20" sketch:type="MSArtboardGroup" fill="#272727">
            <path d="M0,53 C0,52.448 0.447,52 1,52 L3,52 C3.553,52 4,52.448 4,53 C4,53.552 3.553,54 3,54 L1,54 C0.447,54 0,53.552 0,53 L0,53 Z M12,52 C12.553,52 13,51.552 13,51 C13,50.448 12.553,50 12,50 L11,50 C10.447,50 10,50.448 10,51 C10,51.552 10.447,52 11,52 L12,52 L12,52 Z M16,56 C16.553,56 17,55.552 17,55 C17,54.448 16.553,54 16,54 L15,54 C14.447,54 14,54.448 14,55 C14,55.552 14.447,56 15,56 L16,56 L16,56 Z M43,54 L42,54 C41.447,54 41,54.448 41,55 C41,55.552 41.447,56 42,56 L43,56 C43.553,56 44,55.552 44,55 C44,54.448 43.553,54 43,54 L43,54 Z M3,8 L4,8 C4.553,8 5,7.552 5,7 C5,6.448 4.553,6 4,6 L3,6 C2.447,6 2,6.448 2,7 C2,7.552 2.447,8 3,8 L3,8 Z M32,4 L33,4 C33.553,4 34,3.552 34,3 C34,2.448 33.553,2 33,2 L32,2 C31.447,2 31,2.448 31,3 C31,3.552 31.447,4 32,4 L32,4 Z M10,24 C10.553,24 11,23.552 11,23 C11,22.448 10.553,22 10,22 L9,22 C8.447,22 8,22.448 8,23 C8,23.552 8.447,24 9,24 L10,24 L10,24 Z M20,38 L19,38 C18.447,38 18,38.448 18,39 C18,39.552 18.447,40 19,40 L20,40 C20.553,40 21,39.552 21,39 C21,38.448 20.553,38 20,38 L20,38 Z M39,50 L33,50 C32.447,50 32,50.448 32,51 C32,51.552 32.447,52 33,52 L39,52 C39.553,52 40,51.552 40,51 C40,50.448 39.553,50 39,50 L39,50 Z M1,22 L5,22 C5.553,22 6,21.552 6,21 C6,20.448 5.553,20 5,20 L1,20 C0.447,20 0,20.448 0,21 C0,21.552 0.447,22 1,22 L1,22 Z M52,7 C52,7.552 52.447,8 53,8 L57,8 C57.553,8 58,7.552 58,7 C58,6.448 57.553,6 57,6 L53,6 C52.447,6 52,6.448 52,7 L52,7 Z M33,36 L29,36 C28.447,36 28,36.448 28,37 C28,37.552 28.447,38 29,38 L33,38 C33.553,38 34,37.552 34,37 C34,36.448 33.553,36 33,36 L33,36 Z M21,8 L23,8 C23.553,8 24,7.552 24,7 C24,6.448 23.553,6 23,6 L21,6 C20.447,6 20,6.448 20,7 C20,7.552 20.447,8 21,8 L21,8 Z M17,20 C17.553,20 18,19.552 18,19 C18,18.448 17.553,18 17,18 L15,18 C14.447,18 14,18.448 14,19 C14,19.552 14.447,20 15,20 L17,20 L17,20 Z M5,36 C5.553,36 6,35.552 6,35 C6,34.448 5.553,34 5,34 L3,34 C2.447,34 2,34.448 2,35 C2,35.552 2.447,36 3,36 L5,36 L5,36 Z M45,38 C44.447,38 44,38.448 44,39 C44,39.552 44.447,40 45,40 L47,40 C47.553,40 48,39.552 48,39 C48,38.448 47.553,38 47,38 L45,38 L45,38 Z M55,34 C54.447,34 54,34.448 54,35 C54,35.552 54.447,36 55,36 L59,36 C59.553,36 60,35.552 60,35 C60,34.448 59.553,34 59,34 L55,34 L55,34 Z M35,22 L33,22 C32.447,22 32,22.448 32,23 C32,23.552 32.447,24 33,24 L35,24 C35.553,24 36,23.552 36,23 C36,22.448 35.553,22 35,22 L35,22 Z M47,18 L43,18 C42.447,18 42,18.448 42,19 C42,19.552 42.447,20 43,20 L47,20 C47.553,20 48,19.552 48,19 C48,18.448 47.553,18 47,18 L47,18 Z M22,46 L1,46 C0.447,46 0,46.448 0,47 C0,47.552 0.447,48 1,48 L22,48 L22,58 L1,58 C0.447,58 0,58.448 0,59 C0,59.552 0.447,60 1,60 L22,60 C23.102,60 24,59.103 24,58 L24,48 C24,46.897 23.102,46 22,46 L22,46 Z M52,48 L52,58 C52,59.103 51.102,60 50,60 L28,60 C26.897,60 26,59.103 26,58 L26,48 C26,46.897 26.897,46 28,46 L50,46 C51.102,46 52,46.897 52,48 L52,48 Z M50.001,58 L50,48 L28,48 L28,58 L50.001,58 L50.001,58 Z M12,42 L12,32 C12,30.897 12.897,30 14,30 L36,30 C37.102,30 38,30.897 38,32 L38,42 C38,43.103 37.102,44 36,44 L14,44 C12.897,44 12,43.103 12,42 L12,42 Z M14,42 L36.001,42 L36,32 L14,32 L14,42 L14,42 Z M59.001,30.021 L42,30 C40.898,30 40,30.897 40,32 L40,42 C40,43.103 40.898,44 42,44 L59,44 C59.553,44 60,43.552 60,43 C60,42.448 59.553,42 59,42 L42,42 L41.999,32 L58.999,32.021 L59,32.021 C59.552,32.021 59.999,31.574 60,31.022 C60.001,30.469 59.554,30.021 59.001,30.021 L59.001,30.021 Z M59.007,46.021 L56,46 C54.897,46 54,46.897 54,48 L54,58 C54,59.103 54.897,60 56,60 C56.553,60 57,59.552 57,59 C57,58.448 56.553,58 56,58 L55.993,48 L58.993,48.021 L59,48.021 C59.549,48.021 59.996,47.577 60,47.027 C60.004,46.475 59.56,46.024 59.007,46.021 L59.007,46.021 Z M2,27 C2,27.552 2.447,28 3,28 L22,28 C23.102,28 24,27.103 24,26 L24,16 C24,14.897 23.102,14 22,14 L5,14 C4.447,14 4,14.448 4,15 C4,15.552 4.447,16 5,16 L22,16 L22,26 L3,26 C2.447,26 2,26.448 2,27 L2,27 Z M0,43 C0,43.552 0.447,44 1,44 L8,44 C9.102,44 10,43.103 10,42 L10,32 C10,30.897 9.102,30 8,30 L1,30 C0.447,30 0,30.448 0,31 C0,31.552 0.447,32 1,32 L8,32 L8,42 L1,42 C0.447,42 0,42.448 0,43 L0,43 Z M3,12 L8,12 C9.102,12 10,11.103 10,10 L10,5 C10,4.448 9.553,4 9,4 C8.447,4 8,4.448 8,5 L8,10 L3,10 C2.447,10 2,10.448 2,11 C2,11.552 2.447,12 3,12 L3,12 Z M50,28 L28,28 C26.897,28 26,27.103 26,26 L26,16 C26,14.897 26.897,14 28,14 L50,14 C51.102,14 52,14.897 52,16 L52,26 C52,27.103 51.102,28 50,28 L50,28 Z M28,26 L50.001,26 L50,16 L28,16 L28,26 L28,26 Z M42,12 L55,12 C55.553,12 56,11.552 56,11 C56,10.448 55.553,10 55,10 L42,10 L41.998,2 L52.998,2.021 L52.999,2.021 C53.552,2.021 53.999,1.574 54,1.023 C54.001,0.47 53.554,0.022 53.002,0.021 L42,0 C40.898,0 40,0.897 40,2 L40,10 C40,11.103 40.898,12 42,12 L42,12 Z M14,12 L36,12 C37.102,12 38,11.103 38,10 L38,1 C38,0.448 37.553,0 37,0 C36.447,0 36,0.448 36,1 L36,10 L14,10.003 L14.02,3.003 C14.022,2.451 13.576,2.002 13.023,2 L13.022,2 C12.47,2 12.023,2.446 12.021,2.997 L12,10 C12,11.103 12.897,12 14,12 L14,12 Z M55.979,16 L56.979,16.021 C57.506,16.024 57.988,15.593 58,15.041 C58.011,14.489 57.572,14.032 57.021,14.021 L56,14 C54.897,14 54,14.897 54,16 L54,26 C54,27.103 54.897,28 56,28 L59,28 C59.553,28 60,27.552 60,27 C60,26.448 59.553,26 59,26 L56,26 L55.979,16 L55.979,16 Z" id="brick-wall" sketch:type="MSShapeGroup"></path>
        </g>
    </g>
</svg>