<?xml version="1.0" encoding="UTF-8" standalone="no"?>
<svg width="60px" height="60px" viewBox="0 0 60 60" version="1.1" xmlns="http://www.w3.org/2000/svg" xmlns:xlink="http://www.w3.org/1999/xlink" xmlns:sketch="http://www.bohemiancoding.com/sketch/ns">
    <!-- Generator: Sketch 3.4 (15575) - http://www.bohemiancoding.com/sketch -->
    <title>calendar</title>
    <desc>Created with Sketch.</desc>
    <defs></defs>
    <g id="Office" stroke="none" stroke-width="1" fill="none" fill-rule="evenodd" sketch:type="MSPage">
        <g id="Icon-2" sketch:type="MSArtboardGroup" fill="#272727">
            <path d="M35,44 C35.552,44 36,43.552 36,43 C36,42.448 35.552,42 35,42 L33,42 C32.448,42 32,42.448 32,43 L32,47 C32,47.552 32.448,48 33,48 L35,48 C35.552,48 36,47.552 36,47 C36,46.448 35.552,46 35,46 L34,46 L34,44 L35,44 Z M50,48 L50,45 C50,44.448 49.552,44 49,44 C48.448,44 48,44.448 48,45 L48,49 C48,49.552 48.448,50 49,50 L55,50 C55.552,50 56,49.552 56,49 C56,48.448 55.552,48 55,48 L50,48 Z M58,49 C58,44.038 53.962,40 49,40 C44.038,40 40,44.038 40,49 C40,53.962 44.038,58 49,58 C53.962,58 58,53.962 58,49 L58,49 Z M60,49 C60,55.065 55.065,60 49,60 C42.935,60 38,55.065 38,49 C38,42.935 42.935,38 49,38 C55.065,38 60,42.935 60,49 L60,49 Z M46,24 L44,24 L44,26 L46,26 L46,24 Z M48,27 C48,27.552 47.552,28 47,28 L43,28 C42.448,28 42,27.552 42,27 L42,23 C42,22.448 42.448,22 43,22 L47,22 C47.552,22 48,22.448 48,23 L48,27 Z M26,44 L24,44 L24,46 L26,46 L26,44 Z M28,43 L28,47 C28,47.552 27.552,48 27,48 L23,48 C22.448,48 22,47.552 22,47 L22,43 C22,42.448 22.448,42 23,42 L27,42 C27.552,42 28,42.448 28,43 L28,43 Z M16,44 L14,44 L14,46 L16,46 L16,44 Z M18,43 L18,47 C18,47.552 17.552,48 17,48 L13,48 C12.448,48 12,47.552 12,47 L12,43 C12,42.448 12.448,42 13,42 L17,42 C17.552,42 18,42.448 18,43 L18,43 Z M36,24 L34,24 L34,26 L36,26 L36,24 Z M38,27 C38,27.552 37.552,28 37,28 L33,28 C32.448,28 32,27.552 32,27 L32,23 C32,22.448 32.448,22 33,22 L37,22 C37.552,22 38,22.448 38,23 L38,27 Z M47,36 C47.552,36 48,35.552 48,35 L48,33 C48,32.448 47.552,32 47,32 L43,32 C42.448,32 42,32.448 42,33 L42,35 C42,35.552 42.448,36 43,36 C43.552,36 44,35.552 44,35 L44,34 L46,34 L46,35 C46,35.552 46.448,36 47,36 L47,36 Z M36,34 L34,34 L34,36 L36,36 L36,34 Z M37,38 L33,38 C32.448,38 32,37.552 32,37 L32,33 C32,32.448 32.448,32 33,32 L37,32 C37.552,32 38,32.448 38,33 L38,37 C38,37.552 37.552,38 37,38 L37,38 Z M26,34 L24,34 L24,36 L26,36 L26,34 Z M28,37 C28,37.552 27.552,38 27,38 L23,38 C22.448,38 22,37.552 22,37 L22,33 C22,32.448 22.448,32 23,32 L27,32 C27.552,32 28,32.448 28,33 L28,37 Z M26,24 L24,24 L24,26 L26,26 L26,24 Z M28,27 C28,27.552 27.552,28 27,28 L23,28 C22.448,28 22,27.552 22,27 L22,23 C22,22.448 22.448,22 23,22 L27,22 C27.552,22 28,22.448 28,23 L28,27 Z M16,34 L14,34 L14,36 L16,36 L16,34 Z M18,37 C18,37.552 17.552,38 17,38 L13,38 C12.448,38 12,37.552 12,37 L12,33 C12,32.448 12.448,32 13,32 L17,32 C17.552,32 18,32.448 18,33 L18,37 Z M16,24 L14,24 L14,26 L16,26 L16,24 Z M18,27 C18,27.552 17.552,28 17,28 L13,28 C12.448,28 12,27.552 12,27 L12,23 C12,22.448 12.448,22 13,22 L17,22 C17.552,22 18,22.448 18,23 L18,27 Z M44,7 C44,7.551 44.449,8 45,8 C45.551,8 46,7.551 46,7 L46,3 C46,2.449 45.551,2 45,2 C44.449,2 44,2.449 44,3 L44,7 Z M42,7 L42,3 C42,1.346 43.346,0 45,0 C46.654,0 48,1.346 48,3 L48,7 C48,8.654 46.654,10 45,10 C43.346,10 42,8.654 42,7 L42,7 Z M34,7 C34,7.551 34.449,8 35,8 C35.551,8 36,7.551 36,7 L36,3 C36,2.449 35.551,2 35,2 C34.449,2 34,2.449 34,3 L34,7 Z M32,7 L32,3 C32,1.346 33.346,0 35,0 C36.654,0 38,1.346 38,3 L38,7 C38,8.654 36.654,10 35,10 C33.346,10 32,8.654 32,7 L32,7 Z M24,7 C24,7.551 24.449,8 25,8 C25.551,8 26,7.551 26,7 L26,3 C26,2.449 25.551,2 25,2 C24.449,2 24,2.449 24,3 L24,7 Z M22,7 L22,3 C22,1.346 23.346,0 25,0 C26.654,0 28,1.346 28,3 L28,7 C28,8.654 26.654,10 25,10 C23.346,10 22,8.654 22,7 L22,7 Z M14,7 C14,7.551 14.449,8 15,8 C15.551,8 16,7.551 16,7 L16,3 C16,2.449 15.551,2 15,2 C14.449,2 14,2.449 14,3 L14,7 Z M12,7 L12,3 C12,1.346 13.346,0 15,0 C16.654,0 18,1.346 18,3 L18,7 C18,8.654 16.654,10 15,10 C13.346,10 12,8.654 12,7 L12,7 Z M55,37 C55.552,37 56,36.552 56,36 L56,17 C56,16.448 55.552,16 55,16 L5,16 C4.448,16 4,16.448 4,17 L4,52 C4,54.206 5.794,56 8,56 L36,56 C36.552,56 37,55.552 37,55 C37,54.448 36.552,54 36,54 L8,54 C6.897,54 6,53.103 6,52 L6,18 L54,18 L54,36 C54,36.552 54.448,37 55,37 L55,37 Z M38,58 L5,58 C3.542,58 2,56.458 2,55 L2,14 L55,14 C55.552,14 56,13.552 56,13 C56,12.448 55.552,12 55,12 L1,12 C0.448,12 0,12.448 0,13 L0,55 C0,57.57 2.43,60 5,60 L38,60 C38.552,60 39,59.552 39,59 C39,58.448 38.552,58 38,58 L38,58 Z M55,2 L51,2 C50.448,2 50,2.448 50,3 C50,3.552 50.448,4 51,4 L55,4 C56.458,4 58,5.542 58,7 L58,38 C58,38.552 58.448,39 59,39 C59.552,39 60,38.552 60,38 L60,7 C60,4.43 57.57,2 55,2 L55,2 Z M0,9 L0,7 C0,4.43 2.43,2 5,2 L9,2 C9.552,2 10,2.448 10,3 C10,3.552 9.552,4 9,4 L5,4 C3.542,4 2,5.542 2,7 L2,9 C2,9.552 1.552,10 1,10 C0.448,10 0,9.552 0,9 L0,9 Z" id="calendar" sketch:type="MSShapeGroup"></path>
        </g>
    </g>
</svg>