<?xml version="1.0" ?><!DOCTYPE svg  PUBLIC '-//W3C//DTD SVG 1.1//EN'  'http://www.w3.org/Graphics/SVG/1.1/DTD/svg11.dtd'><svg height="512px" style="enable-background:new 0 0 512 512;" version="1.1" viewBox="0 0 512 512" width="512px" xml:space="preserve" xmlns="http://www.w3.org/2000/svg" xmlns:xlink="http://www.w3.org/1999/xlink"><g id="_x31_25_x2C__Canada_x2C__Leaf_x2C__Maple"><path d="M363.076,216.673c-1.122-1.1-1.661-2.663-1.456-4.221l5.722-43.559l-55.636,59.25c-1.536,1.637-3.978,2.05-5.969,1.004   c-1.989-1.044-3.038-3.287-2.563-5.483l28.108-130.006l-36.537,27.901c-1.245,0.952-2.866,1.264-4.377,0.843   c-1.511-0.422-2.736-1.527-3.311-2.986l-31.086-79.027l-31.468,79.046c-0.58,1.458-1.811,2.559-3.323,2.973   c-1.514,0.416-3.132,0.096-4.375-0.861l-36.118-27.834l27.71,129.966c0.468,2.195-0.584,4.433-2.572,5.473   c-1.99,1.041-4.427,0.628-5.963-1.007l-55.504-59.109l6.016,43.382c0.217,1.563-0.316,3.136-1.438,4.244s-2.701,1.625-4.261,1.387   l-84.265-12.733l52.79,66.643c0.974,1.229,1.314,2.844,0.92,4.361c-0.394,1.518-1.478,2.763-2.927,3.363L70.476,296.54   l107.927,25.284c1.875,0.439,3.332,1.918,3.744,3.799c0.412,1.883-0.294,3.835-1.814,5.018c-5.764,4.484-11.537,9.171-17.12,13.7   c-3.168,2.57-6.397,5.196-9.658,7.807c26.678,7.407,53.698,11.924,80.46,13.418c1.388,0.077,2.68,0.753,3.568,1.821   c0.888,1.07,1.291,2.702,1.112,4.08L225.69,472h58.659l-12.224-100.068c-0.169-1.379,0.243-2.959,1.139-4.021   c0.895-1.063,2.191-1.753,3.579-1.821c28.934-1.419,57.925-5.938,86.33-13.397l-31.301-21.89c-1.616-1.13-2.418-3.11-2.046-5.047   c0.371-1.937,1.847-3.477,3.766-3.928l107.52-25.277l-40.737-16.868c-1.451-0.602-2.536-1.851-2.929-3.372   s-0.047-3.139,0.934-4.367l53.146-66.619l-84.201,12.724C365.771,218.283,364.197,217.773,363.076,216.673z"/></g><g id="Layer_1"/></svg>