<?xml version="1.0" ?><!DOCTYPE svg  PUBLIC '-//W3C//DTD SVG 1.1//EN'  'http://www.w3.org/Graphics/SVG/1.1/DTD/svg11.dtd'><svg height="512px" style="enable-background:new 0 0 512 512;" version="1.1" viewBox="0 0 512 512" width="512px" xml:space="preserve" xmlns="http://www.w3.org/2000/svg" xmlns:xlink="http://www.w3.org/1999/xlink"><g id="_x35_3-canadian-maple-leaf"><g><path d="M370.82,341.98c2.246-2.247,94.516-83.016,94.516-83.016l-15.723-6.738    c-8.986-4.402-6.65-10.332-4.492-15.633c2.156-6.827,18.057-60.464,18.057-60.464s-42.855,8.984-51.84,11.23    c-6.738,2.155-8.984-2.246-11.229-6.738c-2.248-4.492-13.477-29.109-13.477-29.109s-47.26,53.815-49.506,55.973    c-8.982,6.737-18.059,0-15.813-8.984c0-8.985,24.797-116.438,24.797-116.438s-27.043,15.633-36.027,20.125    c-6.738,4.492-11.318,4.492-15.811-4.492c-4.582-6.738-38.364-71.694-38.364-71.694s-33.69,64.956-38.184,71.694    c-4.492,8.984-8.984,8.984-15.813,4.492c-8.985-4.492-36.026-20.125-36.026-20.125s24.796,107.453,24.796,116.438    c2.245,8.984-6.739,15.722-15.813,8.984c-2.246-2.247-49.504-55.973-49.504-55.973s-11.231,24.526-13.477,29.019    c-2.247,4.492-4.492,8.895-11.231,6.738c-9.073-2.246-51.838-11.23-51.838-11.23s15.812,53.638,18.059,60.464    c2.156,5.392,4.492,11.231-4.492,15.634l-15.724,6.828c0,0,92.179,80.769,94.516,83.016c4.58,4.492,8.984,6.737,4.58,20.214    c-4.58,13.479-9.072,31.535-9.072,31.535s85.531-18.057,94.604-20.304c7.816-0.809,16.441,2.247,16.441,11.231    c0,9.072-5.211,101.342-5.211,101.342h26.954c0,0-5.211-92.27-5.211-101.342c0-8.984,8.533-12.04,16.531-11.231    c8.984,2.247,94.516,20.304,94.516,20.304s-4.492-18.057-8.986-31.535C361.836,348.718,366.326,346.473,370.82,341.98z" style="fill:#D30000;"/></g></g><g id="Layer_1"/></svg>