<?xml version="1.0" encoding="UTF-8" standalone="no"?>
<svg width="60px" height="56px" viewBox="0 0 60 56" version="1.1" xmlns="http://www.w3.org/2000/svg" xmlns:xlink="http://www.w3.org/1999/xlink" xmlns:sketch="http://www.bohemiancoding.com/sketch/ns">
    <!-- Generator: Sketch 3.4 (15575) - http://www.bohemiancoding.com/sketch -->
    <title>computer</title>
    <desc>Created with Sketch.</desc>
    <defs></defs>
    <g id="Computing" stroke="none" stroke-width="1" fill="none" fill-rule="evenodd" sketch:type="MSPage">
        <g id="Icon-11" sketch:type="MSArtboardGroup" transform="translate(0.000000, -4.000000)" fill="#272727">
            <path d="M58,45 C58,46.458 56.458,48 55,48 L5,48 C3.542,48 2,46.458 2,45 L2,9 C2,7.542 3.542,6 5,6 L55,6 C56.458,6 58,7.542 58,9 L58,45 Z M55,4 L5,4 C2.43,4 0,6.43 0,9 L0,45 C0,47.57 2.43,50 5,50 L55,50 C57.57,50 60,47.57 60,45 L60,9 C60,6.43 57.57,4 55,4 L55,4 Z M40.293,15.707 C39.902,15.316 39.902,14.684 40.293,14.293 C40.684,13.902 41.316,13.902 41.707,14.293 L49.707,22.293 C50.098,22.684 50.098,23.316 49.707,23.707 C49.512,23.902 49.256,24 49,24 C48.744,24 48.488,23.902 48.293,23.707 L40.293,15.707 Z M31.03,45 C31.03,45.552 30.583,46 30.03,46 C29.478,46 29.025,45.552 29.025,45 C29.025,44.448 29.468,44 30.02,44 L30.03,44 C30.583,44 31.03,44.448 31.03,45 L31.03,45 Z M46.293,15.707 C45.902,15.316 45.902,14.684 46.293,14.293 C46.684,13.902 47.316,13.902 47.707,14.293 L49.707,16.293 C50.098,16.684 50.098,17.316 49.707,17.707 C49.512,17.902 49.256,18 49,18 C48.744,18 48.488,17.902 48.293,17.707 L46.293,15.707 Z M44,59 C44,59.552 43.552,60 43,60 L17,60 C16.448,60 16,59.552 16,59 C16,58.448 16.448,58 17,58 L24,58 L24,53 C24,52.448 24.448,52 25,52 C25.552,52 26,52.448 26,53 L26,58 L34,58 L34,53 C34,52.448 34.448,52 35,52 C35.552,52 36,52.448 36,53 L36,58 L43,58 C43.552,58 44,58.448 44,59 L44,59 Z M54,40 L6,40 L6,10 L54,10 L54,40 Z M55,8 L5,8 C4.448,8 4,8.448 4,9 L4,41 C4,41.552 4.448,42 5,42 L55,42 C55.552,42 56,41.552 56,41 L56,9 C56,8.448 55.552,8 55,8 L55,8 Z" id="computer" sketch:type="MSShapeGroup"></path>
        </g>
    </g>
</svg>