<?xml version="1.0" encoding="UTF-8" standalone="no"?>
<svg width="60px" height="52px" viewBox="0 0 60 52" version="1.1" xmlns="http://www.w3.org/2000/svg" xmlns:xlink="http://www.w3.org/1999/xlink" xmlns:sketch="http://www.bohemiancoding.com/sketch/ns">
    <!-- Generator: Sketch 3.4 (15575) - http://www.bohemiancoding.com/sketch -->
    <title>family</title>
    <desc>Created with Sketch.</desc>
    <defs></defs>
    <g id="Family" stroke="none" stroke-width="1" fill="none" fill-rule="evenodd" sketch:type="MSPage">
        <g id="Icon-10" sketch:type="MSArtboardGroup" transform="translate(0.000000, -8.000000)" fill="#272727">
            <path d="M30.0303,44 L30.0193,44 C29.4683,44 29.0253,44.448 29.0253,45 C29.0253,45.552 29.4773,46 30.0303,46 C30.5823,46 31.0303,45.552 31.0303,45 C31.0303,44.448 30.5823,44 30.0303,44 L30.0303,44 Z M34.0303,46 C34.5823,46 35.0303,45.552 35.0303,45 C35.0303,44.448 34.5823,44 34.0303,44 L34.0193,44 C33.4683,44 33.0253,44.448 33.0253,45 C33.0253,45.552 33.4773,46 34.0303,46 L34.0303,46 Z M35.0003,54 C34.8023,54 34.6093,54.059 34.4453,54.168 L32.0003,55.798 L29.5543,54.168 C29.3903,54.059 29.1973,54 29.0003,54 C23.2153,54 22.0003,56.719 22.0003,59 C22.0003,59.552 22.4473,60 23.0003,60 C23.5523,60 24.0003,59.552 24.0003,59 C24.0003,58.196 24.0003,56.088 28.7013,56.002 L31.4453,57.832 C31.7813,58.056 32.2183,58.056 32.5543,57.832 L35.2993,56.002 C40.0003,56.088 40.0003,58.196 40.0003,59 C40.0003,59.552 40.4473,60 41.0003,60 C41.5523,60 42.0003,59.552 42.0003,59 C42.0003,56.719 40.7853,54 35.0003,54 L35.0003,54 Z M33.0003,40 L31.0003,40 C28.5703,40 27.0003,41.57 27.0003,44 L27.0003,45 C27.0003,46.804 27.4873,51 32.0003,51 C36.5123,51 37.0003,46.804 37.0003,45 L37.0003,44 C37.0003,41.57 35.4293,40 33.0003,40 L33.0003,40 Z M33.0003,38 C36.5323,38 39.0003,40.467 39.0003,44 L39.0003,45 C39.0003,49.86 36.2523,53 32.0003,53 C27.7483,53 25.0003,49.86 25.0003,45 L25.0003,44 C25.0003,40.467 27.4673,38 31.0003,38 L33.0003,38 Z M48.0003,20.938 C46.7113,20.801 44.4763,20.363 43.0763,18.962 C42.1883,20.098 40.9793,20.656 40.0003,20.878 L40.0003,24 C40.0003,26.718 41.7843,30 44.0003,30 C46.2163,30 48.0003,26.718 48.0003,24 L48.0003,20.938 Z M49.0003,19 C49.5523,19 50.0003,19.448 50.0003,20 L50.0003,24 C50.0003,27.34 47.7173,32 44.0003,32 C40.2823,32 38.0003,27.34 38.0003,24 L38.0003,20 C38.0003,19.448 38.4473,19 39.0003,19 C39.0873,18.999 41.3003,18.939 42.0513,16.684 C42.1873,16.275 42.5693,16 43.0003,16 C43.4303,16 43.8123,16.275 43.9483,16.684 C44.7003,18.937 48.9573,19 49.0003,19 L49.0003,19 Z M34.9233,30.997 C35.4803,31.033 35.9553,30.627 35.9973,30.077 L36.9963,17.093 C37.2183,14.713 40.4173,12 43.0003,12 L45.0003,12 C47.6323,12 50.8303,14.702 51.0033,17.077 L52.0033,30.077 C52.0433,30.601 52.4813,31 52.9993,31 C53.0243,31 53.0513,30.999 53.0773,30.997 C53.6273,30.955 54.0393,30.474 53.9973,29.923 L52.9973,16.927 C52.7303,13.262 48.3023,10 45.0003,10 L43.0003,10 C39.3603,10 35.3253,13.486 35.0033,16.923 L34.0033,29.923 C33.9613,30.474 34.3733,30.955 34.9233,30.997 L34.9233,30.997 Z M53.0663,42 L53.0623,42 C52.5113,42 52.0643,42.445 52.0623,42.996 L52.0003,58.996 C51.9983,59.548 52.4433,59.998 52.9963,60 L53.0003,60 C53.5513,60 53.9983,59.555 54.0003,59.004 L54.0623,43.004 C54.0643,42.452 53.6193,42.002 53.0663,42 L53.0663,42 Z M57.5483,35.001 C55.5883,33.045 52.6433,32.012 49.0303,32.012 C48.4523,32.023 48.0033,32.449 48.0003,33.009 C47.9993,33.213 47.9293,38 44.0003,38 C40.0703,38 40.0013,33.214 40.0003,33.01 C39.9993,32.459 39.5513,32.013 39.0003,32.013 C38.4473,32.013 38.0003,32.46 38.0003,33.013 C38.0003,35.249 39.0803,39.322 43.0003,39.919 L43.0003,45 C43.0003,45.552 43.4473,46 44.0003,46 C44.5523,46 45.0003,45.552 45.0003,45 L45.0003,39.918 C48.3753,39.403 49.6463,36.315 49.9323,34.037 C52.5853,34.186 54.7163,35 56.1343,36.417 C57.3383,37.618 58.0003,39.245 58.0003,41 L58.0003,57 C58.0003,57.552 58.4473,58 59.0003,58 C59.5523,58 60.0003,57.552 60.0003,57 L60.0003,41 C60.0003,38.71 59.1293,36.58 57.5483,35.001 L57.5483,35.001 Z M15.0003,18 L16.0003,18 C16.5523,18 17.0003,17.552 17.0003,17 C17.0003,16.448 16.5523,16 16.0003,16 L15.0003,16 C14.4473,16 14.0003,16.448 14.0003,17 C14.0003,17.552 14.4473,18 15.0003,18 L15.0003,18 Z M20.0003,18 L21.0003,18 C21.5523,18 22.0003,17.552 22.0003,17 C22.0003,16.448 21.5523,16 21.0003,16 L20.0003,16 C19.4473,16 19.0003,16.448 19.0003,17 C19.0003,17.552 19.4473,18 20.0003,18 L20.0003,18 Z M11.0003,18 C11.5523,18 12.0003,18.448 12.0003,19 C12.0003,20.73 12.8853,22.536 12.8953,22.554 C13.9353,24.635 14.8533,26 18.0003,26 C21.1463,26 22.0643,24.635 23.1053,22.553 C23.1143,22.536 24.0003,20.73 24.0003,19 C24.0003,18.448 24.4473,18 25.0003,18 L25.0003,16 C24.4473,16 24.0003,15.552 24.0003,15 L24.0003,14 C24.0003,11.794 22.2063,10 20.0003,10 L16.0003,10 C13.7943,10 12.0003,11.794 12.0003,14 L12.0003,15 C12.0003,15.552 11.5523,16 11.0003,16 L11.0003,18 Z M9.0003,18 L9.0003,16 C9.0003,15.261 9.4023,14.615 10.0003,14.269 L10.0003,14 C10.0003,10.691 12.6913,8 16.0003,8 L20.0003,8 C23.3083,8 26.0003,10.691 26.0003,14 L26.0003,14.269 C26.5973,14.615 27.0003,15.261 27.0003,16 L27.0003,18 C27.0003,18.754 26.5803,19.413 25.9623,19.753 C25.7703,21.675 24.9343,23.367 24.8943,23.447 C23.9883,25.26 22.6183,28 18.0003,28 C13.3823,28 12.0113,25.26 11.1053,23.447 C11.0653,23.367 10.2293,21.675 10.0383,19.753 C9.4203,19.413 9.0003,18.754 9.0003,18 L9.0003,18 Z M7.0003,42 C6.4473,42 6.0003,42.448 6.0003,43 L6.0003,59 C6.0003,59.552 6.4473,60 7.0003,60 C7.5523,60 8.0003,59.552 8.0003,59 L8.0003,43 C8.0003,42.448 7.5523,42 7.0003,42 L7.0003,42 Z M18.0003,30 C16.8973,30 16.0003,30.897 16.0003,32 C16.0003,32.737 16.4053,33.375 17.0003,33.722 L17.0003,41 C17.0003,41.552 17.4473,42 18.0003,42 C18.5523,42 19.0003,41.552 19.0003,41 L19.0003,33.722 C19.5943,33.375 20.0003,32.737 20.0003,32 C20.0003,30.897 19.1023,30 18.0003,30 L18.0003,30 Z M13.9783,30.809 C13.8783,30.323 13.4073,30.014 12.9323,30.013 C7.6793,30.013 3.6613,31.138 1.6123,33.182 C0.5433,34.25 0.0003,35.535 0.0003,37 L0.0003,57 C0.0003,57.552 0.4473,58 1.0003,58 C1.5523,58 2.0003,57.552 2.0003,57 L2.0003,37 C2.0003,36.072 2.3363,35.286 3.0253,34.597 C4.5833,33.042 7.8973,32.117 12.1883,32.021 L17.0213,55.204 C17.1333,55.744 17.6653,56.091 18.2043,55.979 C18.7453,55.866 19.0923,55.336 18.9783,54.796 L13.9783,30.809 Z M22.0013,37 C21.9353,37 21.8703,36.994 21.8033,36.98 C21.2613,36.872 20.9113,36.345 21.0193,35.803 L22.0193,30.816 C22.1183,30.328 22.5673,30.004 23.0643,30.013 C29.4313,30.013 33.8013,31.599 35.3703,34.483 C35.6343,34.968 35.4553,35.575 34.9703,35.839 C34.4823,36.103 33.8773,35.924 33.6143,35.439 C32.5003,33.393 28.8663,32.135 23.8173,32.021 L22.9803,36.197 C22.8843,36.672 22.4683,37 22.0013,37 L22.0013,37 Z" id="family" sketch:type="MSShapeGroup"></path>
        </g>
    </g>
</svg>