<?xml version="1.0" encoding="UTF-8" standalone="no"?>
<svg width="60px" height="60px" viewBox="0 0 60 60" version="1.1" xmlns="http://www.w3.org/2000/svg" xmlns:xlink="http://www.w3.org/1999/xlink" xmlns:sketch="http://www.bohemiancoding.com/sketch/ns">
    <!-- Generator: Sketch 3.4 (15575) - http://www.bohemiancoding.com/sketch -->
    <title>growth</title>
    <desc>Created with Sketch.</desc>
    <defs></defs>
    <g id="Ecology" stroke="none" stroke-width="1" fill="none" fill-rule="evenodd" sketch:type="MSPage">
        <g id="Icon-13" sketch:type="MSArtboardGroup" fill="#0e0e0e">
            <path d="M30.013,22.5072592 C29.912,24.3082592 30.685,26.0452592 32.31,27.6702592 C35.476,30.8362592 39.142,30.7312592 42.53,27.3432592 C43.473,26.4012592 44.366,24.8862592 45,23.6662592 C45.634,24.8852592 46.527,26.4012592 47.47,27.3432592 C49.219,29.0912592 51.022,29.9782592 52.829,29.9782592 L52.83,29.9782592 C54.523,29.9782592 56.158,29.2022592 57.69,27.6702592 C59.315,26.0452592 60.088,24.3072592 59.987,22.5042592 C59.891,20.8002592 59.006,19.1002592 57.357,17.4512592 C56.416,16.5082592 54.902,15.6262592 53.683,15.0022592 C54.901,14.3602592 56.416,13.4582592 57.357,12.5162592 C59.006,10.8672592 59.891,9.16625921 59.987,7.46025921 C60.088,5.65525921 59.315,3.91625921 57.69,2.29125921 C54.528,-0.871740785 50.861,-0.760740785 47.47,2.62925921 C46.527,3.57125921 45.634,5.08725921 45,6.30625921 C44.366,5.08725921 43.473,3.57125921 42.53,2.62925921 C39.14,-0.760740785 35.473,-0.870740785 32.31,2.29125921 C30.685,3.91625921 29.912,5.65525921 30.013,7.46025921 C30.109,9.16625921 30.994,10.8672592 32.643,12.5162592 C33.585,13.4592592 35.101,14.3512592 36.32,14.9832592 C35.101,15.6182592 33.585,16.5142592 32.643,17.4562592 C30.994,19.1052592 30.109,20.8052592 30.013,22.5072592 L30.013,22.5072592 Z M39.036,15.9012592 C39.406,15.7442592 39.646,15.3812592 39.646,14.9792592 C39.645,14.5772592 39.404,14.2152592 39.033,14.0592592 C38.999,14.0442592 35.524,12.5702592 34.057,11.1022592 C32.767,9.81125921 32.077,8.54825921 32.01,7.34725921 C31.942,6.13625921 32.519,4.91125921 33.725,3.70525921 C36.122,1.31025921 38.515,1.44425921 41.116,4.04325921 C42.584,5.51225921 44.064,8.98625921 44.079,9.02125921 C44.235,9.39125921 44.599,9.63125921 45,9.63125921 C45.402,9.63125921 45.765,9.39125921 45.921,9.02125921 C46.331,8.05025921 47.662,5.26525921 48.884,4.04325921 C51.484,1.44525921 53.878,1.30925921 56.275,3.70625921 C57.481,4.91125921 58.058,6.13625921 57.99,7.34725921 C57.923,8.54825921 57.233,9.81125921 55.943,11.1022592 C54.473,12.5732592 50.993,14.0852592 50.958,14.0992592 C50.589,14.2592592 50.352,14.6242592 50.354,15.0262592 C50.358,15.4282592 50.602,15.7892592 50.974,15.9422592 C51.008,15.9572592 54.478,17.3992592 55.943,18.8652592 C57.234,20.1552592 57.923,21.4182592 57.99,22.6172592 C58.058,23.8262592 57.481,25.0502592 56.275,26.2562592 C55.133,27.3992592 53.974,27.9782592 52.83,27.9782592 C51.571,27.9782592 50.244,27.2892592 48.884,25.9292592 C47.416,24.4612592 45.935,20.9862592 45.921,20.9512592 C45.765,20.5812592 45.401,20.3402592 45,20.3402592 C44.598,20.3402592 44.235,20.5812592 44.079,20.9512592 C43.669,21.9222592 42.338,24.7082592 41.116,25.9292592 C38.519,28.5262592 36.123,28.6552592 33.725,26.2562592 C32.519,25.0502592 31.942,23.8272592 32.01,22.6202592 C32.077,21.4222592 32.766,20.1612592 34.057,18.8702592 C35.525,17.4012592 39.001,15.9162592 39.036,15.9012592 L39.036,15.9012592 Z M39,21.9862592 C39.256,21.9862592 39.512,21.8882592 39.707,21.6932592 L42.984,18.4162592 C43.578,18.7662592 44.262,18.9812592 45,18.9812592 C45.738,18.9812592 46.422,18.7662592 47.016,18.4162592 L50.293,21.6932592 C50.488,21.8882592 50.744,21.9862592 51,21.9862592 C51.256,21.9862592 51.512,21.8882592 51.707,21.6932592 C52.098,21.3022592 52.098,20.6702592 51.707,20.2792592 L48.432,17.0032592 C48.784,16.4072592 49,15.7212592 49,14.9812592 C49,14.2422592 48.785,13.5592592 48.435,12.9652592 L51.707,9.69325921 C52.098,9.30225921 52.098,8.67025921 51.707,8.27925921 C51.316,7.88825921 50.684,7.88825921 50.293,8.27925921 L47.022,11.5502592 C46.427,11.1972592 45.741,10.9812592 45,10.9812592 C44.259,10.9812592 43.573,11.1972592 42.977,11.5502592 L39.707,8.27925921 C39.316,7.88825921 38.684,7.88825921 38.293,8.27925921 C37.902,8.67025921 37.902,9.30225921 38.293,9.69325921 L41.565,12.9652592 C41.215,13.5592592 41,14.2422592 41,14.9812592 C41,15.7212592 41.216,16.4072592 41.568,17.0032592 L38.293,20.2792592 C37.902,20.6702592 37.902,21.3022592 38.293,21.6932592 C38.488,21.8882592 38.744,21.9862592 39,21.9862592 L39,21.9862592 Z M46.396,13.5532592 C46.403,13.5602592 46.404,13.5682592 46.411,13.5752592 C46.417,13.5812592 46.425,13.5822592 46.431,13.5882592 C46.781,13.9482592 47,14.4392592 47,14.9812592 C47,16.0842592 46.103,16.9812592 45,16.9812592 C43.897,16.9812592 43,16.0842592 43,14.9812592 C43,14.4392592 43.219,13.9482592 43.569,13.5882592 C43.575,13.5822592 43.583,13.5812592 43.589,13.5752592 C43.596,13.5682592 43.597,13.5602592 43.603,13.5532592 C43.964,13.2002592 44.456,12.9812592 45,12.9812592 C45.544,12.9812592 46.036,13.2002592 46.396,13.5532592 L46.396,13.5532592 Z M15,57.9862592 L2.529,57.9862592 C2.85,56.9412592 3.047,55.4472592 2.493,53.7142592 C1.935,51.9702592 2.371,50.4592592 3.66,49.6732592 C4.3,49.2822592 5.009,49.1832592 5.587,49.3312592 C5.064,50.3422592 4.576,51.9962592 5.593,53.7562592 C6.71,55.6932592 8.618,55.9832592 9.656,55.9832592 C10.167,55.9832592 10.524,55.9132592 10.563,55.9052592 C10.776,55.8612592 10.968,55.7502592 11.112,55.5882592 C11.204,55.4842592 13.352,53.0082592 11.735,50.2102592 C10.902,48.7682592 9.398,47.9422592 7.608,47.9422592 C7.498,47.9422592 7.397,47.9452592 7.307,47.9502592 C6.041,47.0252592 4.193,47.0062592 2.619,47.9652592 C0.974,48.9682592 -0.423,51.1652592 0.587,54.3242592 C1.331,56.6482592 0.221,58.3492592 0.177,58.4142592 C0.155,58.4452592 0.151,58.4822592 0.134,58.5152592 C0.104,58.5692592 0.08,58.6252592 0.061,58.6862592 C0.039,58.7542592 0.026,58.8202592 0.02,58.8902592 C0.016,58.9232592 0,58.9522592 0,58.9862592 C0,59.0172592 0.015,59.0422592 0.018,59.0722592 C0.023,59.1382592 0.037,59.2002592 0.056,59.2632592 C0.076,59.3292592 0.097,59.3912592 0.129,59.4502592 C0.155,59.4992592 0.186,59.5422592 0.221,59.5862592 C0.269,59.6492592 0.32,59.7032592 0.381,59.7532592 C0.401,59.7682592 0.411,59.7912592 0.432,59.8052592 C0.462,59.8262592 0.496,59.8352592 0.528,59.8522592 C0.574,59.8772592 0.617,59.9012592 0.666,59.9192592 C0.752,59.9492592 0.84,59.9652592 0.929,59.9712592 C0.954,59.9732592 0.975,59.9862592 1,59.9862592 L15,59.9862592 C15.552,59.9862592 16,59.5382592 16,58.9862592 C16,58.4342592 15.552,57.9862592 15,57.9862592 L15,57.9862592 Z M10.003,51.2102592 C10.671,52.3662592 10.144,53.4742592 9.82,53.9792592 C9.769,53.9812592 9.715,53.9832592 9.656,53.9832592 C8.915,53.9832592 7.91,53.7702592 7.325,52.7562592 C6.658,51.6022592 7.201,50.4652592 7.537,49.9432592 C8.272,49.9312592 9.378,50.1282592 10.003,51.2102592 L10.003,51.2102592 Z M33,57.9862592 L22,57.9862592 L22,53.9862592 L23.4,53.9862592 C23.515,53.9862592 26.235,53.9642592 28.107,52.0932592 C29.978,50.2212592 30,47.5012592 30,47.3862592 L30,44.9862592 C30,44.4342592 29.552,43.9862592 29,43.9862592 L26.6,43.9862592 C26.485,43.9862592 23.765,44.0082592 21.893,45.8792592 C20.972,46.8012592 20.5,47.9262592 20.257,48.8472592 C20.071,48.6492592 19.886,48.4582592 19.707,48.2792592 C18.869,47.4412592 18.186,46.7562592 18.033,45.5272592 C19.264,44.7062592 22,42.3872592 22,37.9862592 C22,32.4322592 17.633,30.1852592 17.447,30.0912592 C17.166,29.9512592 16.834,29.9512592 16.553,30.0912592 C16.367,30.1852592 12,32.4322592 12,37.9862592 C12,42.4712592 14.845,44.7972592 16.039,45.5772592 C16.23,47.6082592 17.36,48.7602592 18.293,49.6932592 C19.247,50.6472592 20,51.4002592 20,52.9862592 L20,57.9862592 L19,57.9862592 C18.448,57.9862592 18,58.4342592 18,58.9862592 C18,59.5382592 18.448,59.9862592 19,59.9862592 L33,59.9862592 C33.553,59.9862592 34,59.5382592 34,58.9862592 C34,58.4342592 33.553,57.9862592 33,57.9862592 L33,57.9862592 Z M14,37.9862592 C14,34.6012592 16.061,32.8002592 16.998,32.1562592 C17.93,32.8012592 20,34.6122592 20,37.9862592 C20,41.3692592 17.941,43.1702592 17.001,43.8162592 C16.069,43.1712592 14,41.3592592 14,37.9862592 L14,37.9862592 Z M22,50.5902592 C22,50.5702592 22.031,48.5692592 23.307,47.2932592 C24.583,46.0172592 26.583,45.9862592 26.6,45.9862592 L28,45.9862592 L28,47.3822592 C28,47.4022592 27.969,49.4032592 26.693,50.6792592 C25.427,51.9452592 23.448,51.9852592 23.397,51.9862592 L22,51.9862592 L22,50.5902592 L22,50.5902592 Z M59,57.9862592 L46,57.9862592 L46,45.9862592 L48,45.9862592 C48.14,45.9862592 51.44,45.9602592 53.707,43.6932592 C55.974,41.4262592 56,38.1262592 56,37.9862592 L56,34.9862592 C56,34.4342592 55.553,33.9862592 55,33.9862592 L52,33.9862592 C51.86,33.9862592 48.56,34.0122592 46.293,36.2792592 C46.19,36.3832592 46.095,36.4912592 46,36.5992592 L46,27.9862592 C46,27.4342592 45.553,26.9862592 45,26.9862592 C44.447,26.9862592 44,27.4342592 44,27.9862592 L44,42.5992592 C43.905,42.4912592 43.81,42.3832592 43.707,42.2792592 C41.44,40.0122592 38.14,39.9862592 38,39.9862592 L35,39.9862592 C34.447,39.9862592 34,40.4342592 34,40.9862592 L34,43.9862592 C34,44.1262592 34.026,47.4262592 36.293,49.6932592 C38.56,51.9602592 41.86,51.9862592 42,51.9862592 L44,51.9862592 L44,57.9862592 L43,57.9862592 C42.447,57.9862592 42,58.4342592 42,58.9862592 C42,59.5382592 42.447,59.9862592 43,59.9862592 L59,59.9862592 C59.553,59.9862592 60,59.5382592 60,58.9862592 C60,58.4342592 59.553,57.9862592 59,57.9862592 L59,57.9862592 Z M47.707,37.6932592 C49.378,36.0222592 51.977,35.9862592 52,35.9862592 L54,35.9862592 L54,37.9862592 C54,38.0122592 53.98,40.5912592 52.293,42.2792592 C50.634,43.9382592 48.06,43.9852592 47.998,43.9862592 L46,43.9862592 L46,41.9862592 C46,41.9602592 46.02,39.3802592 47.707,37.6932592 L47.707,37.6932592 Z M42,49.9862592 C41.975,49.9862592 39.394,49.9662592 37.707,48.2792592 C36.036,46.6082592 36,44.0092592 36,43.9862592 L36,41.9862592 L38,41.9862592 C38.025,41.9862592 40.605,42.0052592 42.293,43.6932592 C43.964,45.3642592 44,47.9632592 44,47.9862592 L44,49.9862592 L42,49.9862592 L42,49.9862592 Z M40,58.9862592 C40,59.5382592 39.553,59.9862592 39,59.9862592 L37,59.9862592 C36.447,59.9862592 36,59.5382592 36,58.9862592 C36,58.4342592 36.447,57.9862592 37,57.9862592 L39,57.9862592 C39.553,57.9862592 40,58.4342592 40,58.9862592 L40,58.9862592 Z" id="growth" sketch:type="MSShapeGroup"></path>
        </g>
    </g>
</svg>