<?xml version="1.0" encoding="UTF-8" standalone="no"?>
<svg width="60px" height="60px" viewBox="0 0 60 60" version="1.1" xmlns="http://www.w3.org/2000/svg" xmlns:xlink="http://www.w3.org/1999/xlink" xmlns:sketch="http://www.bohemiancoding.com/sketch/ns">
    <!-- Generator: Sketch 3.4 (15575) - http://www.bohemiancoding.com/sketch -->
    <title>house</title>
    <desc>Created with Sketch.</desc>
    <defs></defs>
    <g id="Real-estate" stroke="none" stroke-width="1" fill="none" fill-rule="evenodd" sketch:type="MSPage">
        <g id="Icon-2" sketch:type="MSArtboardGroup" fill="#0e0e0e">
            <path d="M48,42 L42,42 L42,46 L48,46 L48,42 Z M42,40 L48,40 L48,36 L42,36 L42,40 Z M50,46 L51,46 C51.552,46 52,46.448 52,47 C52,47.552 51.552,48 51,48 L39,48 C38.448,48 38,47.552 38,47 C38,46.448 38.448,46 39,46 L40,46 L40,35 C40,34.448 40.448,34 41,34 L49,34 C49.552,34 50,34.448 50,35 L50,46 Z M58,56 C58,54.897 57.103,54 56,54 C55.067,54 54.238,54.542 53.937,55.35 C53.768,55.803 53.297,56.071 52.822,55.984 C52.346,55.898 52,55.484 52,55 C52,53.346 50.654,52 49,52 C47.346,52 46,53.346 46,55 C46,55.552 45.552,56 45,56 C44.449,56 44,56.449 44,57 C44,57.551 44.449,58 45,58 L49,58 L56,58 C57.103,58 58,57.103 58,56 L58,56 Z M60,56 C60,58.206 58.206,60 56,60 L49,60 L45,60 L25,60 C24.448,60 24,59.552 24,59 C24,58.448 24.448,58 25,58 L42.185,58 C42.072,57.686 42,57.353 42,57 C42,55.669 42.871,54.538 44.073,54.146 C44.479,51.795 46.534,50 49,50 C50.969,50 52.675,51.144 53.49,52.802 C53.651,52.687 53.823,52.585 54,52.493 L54,36 C54,35.448 54.448,35 55,35 C55.552,35 56,35.448 56,36 L56,52 C58.206,52 60,53.794 60,56 L60,56 Z M16,57 C16,56.449 15.551,56 15,56 C14.448,56 14,55.552 14,55 C14,53.346 12.654,52 11,52 C9.346,52 8,53.346 8,55 C8,55.484 7.654,55.898 7.178,55.984 C6.7,56.07 6.232,55.803 6.063,55.35 C5.762,54.542 4.933,54 4,54 C2.897,54 2,54.897 2,56 C2,57.103 2.897,58 4,58 L15,58 C15.551,58 16,57.551 16,57 L16,57 Z M18,57 C18,58.654 16.654,60 15,60 L4,60 C1.794,60 0,58.206 0,56 C0,53.794 1.794,52 4,52 L4,36 C4,35.448 4.448,35 5,35 C5.552,35 6,35.448 6,36 L6,52.493 C6.177,52.585 6.349,52.687 6.51,52.802 C7.325,51.144 9.031,50 11,50 C13.466,50 15.521,51.795 15.927,54.146 C17.129,54.538 18,55.669 18,57 L18,57 Z M30,22 C31.103,22 32,21.103 32,20 C32,18.897 31.103,18 30,18 C28.897,18 28,18.897 28,20 C28,21.103 28.897,22 30,22 L30,22 Z M30,24 C27.794,24 26,22.206 26,20 C26,17.794 27.794,16 30,16 C32.206,16 34,17.794 34,20 C34,22.206 32.206,24 30,24 L30,24 Z M26,54 L34,54 L34,46 L33,46 C32.448,46 32,45.552 32,45 C32,44.448 32.448,44 33,44 L34,44 L34,36 L26,36 L26,54 Z M22,56 L22,59 C22,59.552 21.552,60 21,60 C20.448,60 20,59.552 20,59 L20,55 C20,54.448 20.448,54 21,54 L24,54 L24,35 C24,34.448 24.448,34 25,34 L35,34 C35.552,34 36,34.448 36,35 L36,54 L39,54 C39.552,54 40,54.448 40,55 C40,55.552 39.552,56 39,56 L22,56 Z M12,46 L18,46 L18,42 L12,42 L12,46 Z M12,40 L18,40 L18,36 L12,36 L12,40 Z M21,48 L9,48 C8.448,48 8,47.552 8,47 C8,46.448 8.448,46 9,46 L10,46 L10,35 C10,34.448 10.448,34 11,34 L19,34 C19.552,34 20,34.448 20,35 L20,46 L21,46 C21.552,46 22,46.448 22,47 C22,47.552 21.552,48 21,48 L21,48 Z M60,9 L60,34 C60,34.404 59.756,34.769 59.383,34.924 C59.259,34.975 59.129,35 59,35 C58.74,35 58.484,34.898 58.293,34.707 L29.997,6.411 L1.711,34.707 C1.521,34.898 1.265,35 1.004,35 C0.875,35 0.746,34.975 0.622,34.924 C0.248,34.769 0.004,34.405 0.004,34 L0,9 C0,8.735 0.105,8.48 0.293,8.293 C0.48,8.105 0.735,8 1,8 L12,8 L12,6 L11,6 C10.448,6 10,5.552 10,5 L10,1 C10,0.448 10.448,0 11,0 L19,0 C19.552,0 20,0.448 20,1 L20,5 C20,5.552 19.552,6 19,6 L18,6 L18,8 L20,8 C20.552,8 21,8.448 21,9 C21,9.552 20.552,10 20,10 L17,10 C16.448,10 16,9.552 16,9 L16,5 C16,4.448 16.448,4 17,4 L18,4 L18,2 L12,2 L12,4 L13,4 C13.552,4 14,4.448 14,5 L14,9 C14,9.552 13.552,10 13,10 L2,10 L2,31.585 L29.287,4.293 C29.483,4.097 29.74,4 29.997,4 C30.254,4 30.511,4.097 30.707,4.293 L58,31.586 L58,10 L40,10 C39.448,10 39,9.552 39,9 C39,8.448 39.448,8 40,8 L59,8 C59.552,8 60,8.448 60,9 L60,9 Z" id="house" sketch:type="MSShapeGroup"></path>
        </g>
    </g>
</svg>