<?xml version="1.0" encoding="utf-8"?>
<!-- Generator: Adobe Illustrator 19.2.1, SVG Export Plug-In . SVG Version: 6.00 Build 0)  -->
<svg version="1.1" id="layer" xmlns="http://www.w3.org/2000/svg" xmlns:xlink="http://www.w3.org/1999/xlink" x="0px" y="0px"
	 viewBox="0 0 652 652" style="enable-background:new 0 0 652 652;" xml:space="preserve">
<style type="text/css">
	.st0{fill:#FFFFFF;}
	.st1{fill:#004833;}
</style>
<path class="st0" d="M105.2,321.1l215.2,215.2l215.4-215.4L320.6,105.7L105.2,321.1z M88,320.8L320.5,88.3L553.2,321L320.7,553.5
	L88,320.8z"/>
<path class="st1" d="M89.6,321l230.9,230.9L551.3,321L320.5,90.1L89.6,321z M70.5,321l250-250h0l250,250v0l-250,250L70.5,321z"/>
<polygon class="st1" points="104.2,321 320.5,104.7 536.8,321 320.5,537.3 "/>
<rect x="279" y="393.6" class="st0" width="84.1" height="8.6"/>
<g>
	<path class="st0" d="M313.1,198.6c-0.1-1.3-0.2-3-0.2-3s-0.6,0.2-1.7,0.2c-1.8,0.1-7.9,0-8.1,0c-0.3,0-6.4,0.1-8.1,0
		c-1.2,0-1.7-0.2-1.7-0.2s-0.1,1.7-0.2,3c-0.1,1.1-0.3,2.7-0.3,2.7l1.4,0.2c0.1-0.7,0.1-1,0.5-1.9c0.3-0.7,1-1.1,1.5-1.2
		c0.5-0.2,1.2-0.2,1.9-0.2h2.8V214c0,0.6,0,1.2-0.1,1.6c-0.1,0.4-0.6,1-1.1,1c-0.6,0.1-0.6,0.1-1.7,0.1v1.4c0,0,3.7-0.2,5.2-0.2
		c1.4,0,5.2,0.2,5.2,0.2v-1.4c-1,0-1.1,0-1.7-0.1c-0.5-0.1-0.9-0.7-1.1-1c-0.1-0.4-0.1-0.9-0.1-1.6v-15.9h2.8c0.7,0,1.3,0.1,1.9,0.2
		c0.5,0.2,1.2,0.5,1.5,1.2c0.4,0.9,0.4,1.2,0.5,1.9l1.4-0.2C313.3,201.3,313.1,199.6,313.1,198.6"/>
	<path class="st0" d="M331.3,216.7c-0.4-0.1-0.7-0.5-0.8-0.8c-0.1-0.3-0.1-0.7-0.1-1.2v-1.9l0-5c0-0.9-0.1-1.6-0.2-2.2
		c-0.1-0.6-0.3-1.1-0.5-1.5c-0.2-0.5-0.6-0.8-1-1.1c-0.5-0.4-1.1-0.6-1.5-0.7c-0.5-0.1-1.1-0.2-1.7-0.2c-0.6,0-1.1,0.1-1.6,0.3
		c-0.8,0.4-2.4,1.3-3.5,2.2l-0.1,0l0.3-10.9c0,0-1.9,0.7-3,1c-1.4,0.4-2.9,0.4-2.9,0.4l0.3,1.4c0.6-0.4,1.4-0.1,1.6,0.1
		c0.1,0.2,0.3,0.4,0.3,0.7c0.1,0.8,0.2,1.9,0.2,3l-0.2,12.6h0v1.9c0,0.5,0,0.9-0.1,1.2c-0.1,0.3-0.4,0.7-0.8,0.8
		c-0.5,0.1-0.5,0.1-1.3,0.1v1.4c0,0,2.8-0.2,3.9-0.2c1.1,0,3.7,0.2,3.7,0.2v-1.4c-0.8,0-0.6,0-1.1-0.1c-0.4-0.1-0.7-0.5-0.8-0.8
		c-0.1-0.3-0.1-0.7-0.1-1.2v-1.9h0v-6.5c0,0,1.1-0.7,2.1-1.2c0.8-0.4,1.4-0.3,1.7-0.3c1.2,0,2.2,0.3,2.7,2.1
		c0.1,0.8,0.2,1.4,0.2,2.9v3h0v1.9c0,0.5,0,0.9-0.1,1.2c-0.1,0.3-0.4,0.7-0.8,0.8c-0.5,0.1-0.5,0.1-1.3,0.1v1.4c0,0,2.7-0.2,3.8-0.2
		c1.1,0,3.7,0.2,3.7,0.2v-1.4C331.5,216.8,331.7,216.8,331.3,216.7"/>
	<path class="st0" d="M346.4,215.7c-0.7,0.7-1.6,1.1-2.1,1.6c-0.6,0.4-1.3,0.7-2,0.9c-0.7,0.2-1.5,0.4-2.3,0.4
		c-2.3,0-4.2-0.7-5.3-2.1c-1.5-1.9-3.1-5.9-0.7-10.6c0.6-1.2,1.4-2.2,2.5-2.9c1.1-0.7,2.3-1,3.7-1c1.1,0,2,0.2,2.8,0.5
		c0.8,0.4,1.4,0.8,1.9,1.4c0.5,0.6,0.8,1.4,1.1,2.3c0.3,0.9,0.4,2.1,0.4,3.6h-9.9c0,0-0.2,1.7,0.5,3.3c0.7,1.7,2.1,2.9,3.5,3
		c2.2,0.1,4-0.6,5.2-1.8L346.4,215.7z M343,208.2c-0.2-3.2-1.9-4.3-3-4.3c-1.2,0-3.4,0.8-3.6,4.3H343z"/>
	<path class="st0" d="M251.9,360.1c-0.6-1.7-1.5-3.2-2.6-4.5c-1.1-1.2-2.4-2.2-3.9-2.9c-1.5-0.7-3.2-1.1-4.9-1.1
		c-1.7-0.1-3.3,0.2-4.9,0.8c-1.6,0.6-3,1.5-4.2,2.6c-1.2,1.2-2.2,2.6-2.9,4.3c-0.7,1.7-1.1,3.5-1.2,5.7c-0.1,2,0.2,3.8,0.8,5.5
		c0.6,1.7,1.4,3.2,2.5,4.4c1.1,1.3,2.4,2.3,3.9,3c1.5,0.7,3.2,1.1,5.1,1.2c1.7,0.1,3.4-0.2,4.9-0.8c1.6-0.6,2.9-1.5,4.1-2.6
		c1.2-1.2,2.2-2.6,2.9-4.3c0.7-1.7,1.1-3.6,1.2-5.7C252.7,363.7,252.5,361.8,251.9,360.1 M247.2,369.5c-0.2,1.3-0.7,2.5-1.3,3.5
		c-0.6,1-1.3,1.9-2.3,2.5c-1,0.6-2.1,0.9-3.3,1c-1.3,0-2.4-0.2-3.4-0.7c-1-0.5-1.8-1.3-2.4-2.2c-0.7-1-1.2-2.1-1.5-3.4
		c-0.3-1.3-0.6-2.7-0.6-4.4c-0.1-1.5,0-2.9,0.3-4.2s0.6-2.5,1.1-3.5c0.6-1.1,1.3-1.9,2.3-2.6c0.9-0.7,2.1-1,3.5-1.1
		c1.2,0,2.3,0.2,3.3,0.7c1,0.5,1.8,1.2,2.5,2.1c0.7,0.9,1.2,2.1,1.6,3.5c0.4,1.4,0.6,2.9,0.7,4.5
		C247.5,366.7,247.4,368.2,247.2,369.5"/>
	<path class="st0" d="M223.5,360.1c-0.6-1.7-1.5-3.2-2.6-4.5c-1.1-1.2-2.4-2.2-3.9-2.9c-1.5-0.7-3.2-1.1-4.9-1.1
		c-1.7-0.1-3.3,0.2-4.9,0.8c-1.6,0.6-3,1.5-4.2,2.6c-1.2,1.2-2.2,2.6-2.9,4.3c-0.7,1.7-1.1,3.5-1.2,5.7c-0.1,2,0.2,3.8,0.8,5.5
		c0.6,1.7,1.4,3.2,2.5,4.4c1.1,1.3,2.4,2.3,3.9,3c1.5,0.7,3.2,1.1,5.1,1.2c1.7,0.1,3.4-0.2,4.9-0.8c1.6-0.6,2.9-1.5,4.1-2.6
		c1.2-1.2,2.2-2.6,2.9-4.3c0.7-1.7,1.1-3.6,1.2-5.7C224.4,363.7,224.1,361.8,223.5,360.1 M218.8,369.5c-0.2,1.3-0.7,2.5-1.3,3.5
		c-0.6,1-1.3,1.9-2.3,2.5c-1,0.6-2.1,0.9-3.3,1c-1.3,0-2.4-0.2-3.4-0.7c-1-0.5-1.8-1.3-2.4-2.2c-0.7-1-1.2-2.1-1.5-3.4
		c-0.3-1.3-0.6-2.7-0.6-4.4c-0.1-1.5,0-2.9,0.3-4.2s0.6-2.5,1.1-3.5c0.6-1.1,1.3-1.9,2.3-2.6c0.9-0.7,2.1-1,3.5-1.1
		c1.2,0,2.3,0.2,3.3,0.7c1,0.5,1.8,1.2,2.5,2.1c0.7,0.9,1.2,2.1,1.6,3.5c0.4,1.4,0.6,2.9,0.7,4.5
		C219.1,366.7,219.1,368.2,218.8,369.5"/>
	<path class="st0" d="M336.2,360.1c-0.6-1.7-1.5-3.2-2.6-4.5c-1.1-1.2-2.4-2.2-3.9-2.9c-1.5-0.7-3.2-1.1-4.9-1.1
		c-1.7-0.1-3.3,0.2-4.9,0.8c-1.6,0.6-3,1.5-4.2,2.6c-1.2,1.2-2.2,2.6-2.9,4.3c-0.7,1.7-1.1,3.5-1.2,5.7c-0.1,2,0.2,3.8,0.8,5.5
		c0.6,1.7,1.4,3.2,2.5,4.4c1.1,1.3,2.4,2.3,3.9,3c1.5,0.7,3.2,1.1,5.1,1.2c1.7,0.1,3.4-0.2,4.9-0.8c1.6-0.6,2.9-1.5,4.1-2.6
		c1.2-1.2,2.2-2.6,2.9-4.3c0.7-1.7,1.1-3.6,1.2-5.7C337,363.7,336.8,361.8,336.2,360.1 M331.5,369.5c-0.2,1.3-0.7,2.5-1.3,3.5
		c-0.6,1-1.3,1.9-2.3,2.5c-1,0.6-2.1,0.9-3.3,1c-1.3,0-2.4-0.2-3.4-0.7c-1-0.5-1.8-1.3-2.4-2.2c-0.7-1-1.2-2.1-1.5-3.4
		c-0.3-1.3-0.6-2.7-0.6-4.4c-0.1-1.5,0-2.9,0.3-4.2c0.2-1.3,0.6-2.5,1.1-3.5c0.6-1.1,1.3-1.9,2.3-2.6c0.9-0.7,2.1-1,3.5-1.1
		c1.2,0,2.3,0.2,3.3,0.7c1,0.5,1.8,1.2,2.5,2.1c0.7,0.9,1.2,2.1,1.6,3.5c0.4,1.4,0.6,2.9,0.7,4.5
		C331.8,366.7,331.7,368.2,331.5,369.5"/>
	<path class="st0" d="M276.1,355.7c-0.1-1.4-0.2-3.6-0.2-3.6s-0.6,0.2-1.9,0.2c-1.9,0.1-8.4,0-8.7,0c-0.3,0-6.8,0.1-8.7,0
		c-1.2-0.1-1.9-0.2-1.9-0.2s-0.1,2.3-0.2,3.6c-0.1,1.1-0.3,2.9-0.3,2.9l1.5,0.2c0.1-0.8,0.1-1.1,0.5-2c0.3-0.8,1-1.1,1.6-1.3
		c0.6-0.2,1.2-0.2,2-0.2h3.5v18.8c0,0.7,0,1.3-0.1,1.7s-1.1,1-1.6,1.1c-0.6,0.1-0.7,0.1-1.8,0.1v1.5c4.4-0.3,4.4-0.2,5.5-0.3
		c1.1,0,1.1,0,5.5,0.3V377c-1.1,0-1.2,0-1.8-0.1c-0.5-0.1-1.5-0.7-1.6-1.1c-0.1-0.4-0.1-1-0.1-1.7v-18.8h3.5c0.7,0,1.4,0.1,2,0.2
		c0.6,0.2,1.3,0.5,1.6,1.3c0.4,0.9,0.4,1.3,0.5,2l1.5-0.2C276.4,358.6,276.2,356.9,276.1,355.7"/>
	<path class="st0" d="M308.5,353.1c0,0.1,0,0.3,0,0.5c0,0.2,0,0.4,0,0.5c0,0.7-0.1,2.1,0,2.9c0.1,0.8,0.2,1.7,0.3,2.7l-1.6,0.3
		c-0.2-1.6-0.8-3.4-2-4.4c-1.2-0.9-2.8-1.4-4.8-1.4c-2.5,0-4.5,0.8-5.9,2.4c-1.4,1.6-2.5,4.7-2.5,7.6c0,3.1,1.2,7,2.8,8.8
		c1.6,1.8,3.7,2.8,6.3,2.8c1.7,0,3.1-0.4,4.3-1.1c1.2-0.8,1.9-2.2,2.6-3.8l1.6,0.7c-0.4,0.9-0.8,1.7-1.1,2.5
		c-0.3,0.8-0.6,2.1-0.8,2.9c-1.3,0.5-2.5,1.2-3.8,1.5c-1.3,0.3-2.5,0.5-3.7,0.4c-11.4-0.3-13.3-10-13.3-13.6c0-3.6,1.7-7.9,4.2-10.3
		c2.5-2.3,5.6-3.5,9.4-3.5c1.4,0,2.7,0.1,4,0.3C305.8,352.3,307.1,352.7,308.5,353.1"/>
	<path class="st0" d="M353.3,370.6l4.3-10.9c0.9-2.3,1.5-4,1.8-4.9c0.3-1,0.4-1.7,0.4-2.2v-0.2c0.1,0,0.3,0,0.5,0
		c1.7,0.1,2.9,0.1,3.6,0.1c0.4,0,1.2,0,2.5-0.1c0.5,0,0.9,0,1.2-0.1v1.7c-1.1,0-1.9,0.2-2.2,0.5c-0.4,0.3-0.5,1-0.5,2
		c0,0.5,0,1.3,0.1,2.5c0,1.2,0.1,2.4,0.2,3.8l0.2,4.5c0.2,3.3,0.3,5.5,0.4,6.5c0.1,1.1,0.2,1.8,0.3,2.1c0.1,0.4,0.3,0.7,0.7,0.9
		c0.4,0.2,0.8,0.3,1.4,0.3h0.4l0,1.7c-0.9-0.1-1.8-0.1-2.7-0.1c-0.9,0-1.7,0-2.4,0c-0.4,0-1,0-1.7,0c-0.7,0-1.8,0.1-3.2,0.1v-1.7
		h0.5c0.9,0,1.5-0.2,1.9-0.5c0.3-0.3,0.5-1,0.5-1.8c0-0.3,0-0.6,0-0.9c0-0.3,0-0.7-0.1-1.2l-0.7-14.8l-5.9,15.2
		c-0.6,1.5-1,2.6-1.2,3.3c-0.2,0.8-0.4,1.5-0.5,2.2h-1.8c-0.1-0.5-0.2-1.1-0.4-1.6c-0.2-0.6-0.4-1.4-0.8-2.3l-6-16.3
		c-0.3,4-0.6,7.4-0.7,10.1c-0.2,2.7-0.3,4.6-0.3,5.5c0,1.3,0.2,2.2,0.5,2.6c0.3,0.4,0.9,0.6,1.9,0.6h0.5v1.7
		c-1.1-0.1-1.9-0.1-2.6-0.1c-0.7,0-1.3,0-1.7,0c-0.3,0-0.6,0-1.1,0c-0.5,0-1.5,0.1-2.9,0.2l0-1.7c0,0,0.1,0,0.1,0
		c0.3,0,0.5,0.1,0.6,0.1c1.4,0,2.3-2.3,2.6-6.8c0.1-1.2,0.2-2.2,0.2-2.9l0.4-4.5c0.1-1.8,0.2-3.2,0.3-4.4c0.1-1.2,0.1-1.9,0.1-2.2
		c0-0.9-0.2-1.5-0.5-1.9c-0.3-0.3-0.9-0.5-1.8-0.5h-0.4v-1.7c0.7,0,1.4,0.1,2,0.1c0.7,0,1.2,0,1.8,0c0.4,0,1.4,0,2.8-0.1
		c0.6,0,1,0,1.3-0.1v0.1c0,1,1.3,4.8,3.8,11.6C351.9,366.8,352.7,369,353.3,370.6"/>
	<path class="st0" d="M371.8,377.2c0.1,0,0.2,0,0.3,0c0.1,0,0.2,0,0.4,0c0.9,0,1.5-0.3,1.8-0.9c0.3-0.6,0.5-2,0.5-4.2v-1.6
		c0-0.7,0-1.3,0-1.7c0-0.4,0-0.8,0-1.2l0-4.5v-6.5c0-0.9-0.2-1.6-0.5-2c-0.3-0.4-0.9-0.6-1.7-0.6h-0.3v-1.7c0.9,0.1,1.7,0.1,2.5,0.2
		c0.8,0,1.5,0.1,2.1,0.1c1,0,2.2,0,3.5-0.1c1.3-0.1,2.1-0.1,2.4-0.1c2.8,0,5,0.7,6.6,2.1c1.6,1.4,2.4,3.3,2.4,5.7
		c0,2.5-0.8,4.5-2.5,6c-1.7,1.5-3.9,2.2-6.8,2.2c-0.5,0-1.3-0.1-2.6-0.2c-0.2,0-0.4,0-0.5-0.1v4.6c0,2,0.2,3.3,0.5,3.8
		c0.3,0.5,1,0.7,2.1,0.7h0.6v1.7c-1.1-0.1-2.1-0.1-3-0.2c-0.9,0-1.8-0.1-2.6-0.1c-0.4,0-0.9,0-1.7,0.1c-0.8,0-1.9,0.1-3.1,0.2V377.2
		z M379.1,365.9c0.4,0.1,0.8,0.1,1.1,0.2c0.3,0,0.7,0,1,0c1.9,0,3.4-0.5,4.4-1.5c1-1,1.5-2.4,1.5-4.2c0-1.7-0.5-3-1.4-4
		c-1-1-2.3-1.5-3.9-1.5c-0.4,0-0.8,0-1.2,0.1c-0.4,0-0.9,0.1-1.4,0.2c0,1.5,0,3.1,0,4.7C379.1,361.5,379.1,363.5,379.1,365.9"/>
	<path class="st0" d="M399.7,352.4h4c1.6,5.2,3.1,9.9,4.5,14.2c1.4,4.3,2.4,7.2,3,8.6c0.2,0.6,0.5,1.1,0.9,1.4
		c0.4,0.3,0.9,0.4,1.5,0.4h0.4v1.7c-1.4-0.1-2.5-0.1-3.2-0.1c-0.8,0-1.4,0-1.9,0c-0.5,0-1.1,0-1.9,0c-0.8,0-1.9,0.1-3.4,0.1v-1.7
		h0.3c0.9,0,1.5-0.1,1.8-0.3c0.3-0.2,0.5-0.6,0.5-1.2c0-0.2,0-0.4-0.1-0.6c0-0.2-0.1-0.6-0.2-1l-1.4-4.4c-0.6,0-8.2,0-8.5,0
		l-0.1,0.2c-1.1,2.9-1.6,4.8-1.6,5.5c0,0.6,0.2,1.1,0.5,1.4c0.3,0.3,0.9,0.4,1.6,0.4h0.3v1.7c-1.3-0.1-2.2-0.1-2.9-0.1
		c-0.7,0-1.3,0-1.7,0c-0.4,0-0.9,0-1.5,0c-0.6,0-1.5,0.1-2.7,0.1v-1.7c0.8,0,1.4-0.2,1.9-0.5c0.5-0.3,0.9-0.8,1.2-1.5
		c0.5-1,1.5-3.6,3.2-8C396,362.7,397.7,357.8,399.7,352.4 M400.6,356.8L397,367c0.4,0,0.9,0,1.3,0c0.5,0,1.1,0,1.9,0
		c0.9,0,1.6,0,2.1,0c0.5,0,1,0,1.4,0L400.6,356.8z"/>
	<path class="st0" d="M416.8,352.7c0.4,0,1.1,0,2,0.1c0.9,0.1,1.5,0.1,1.9,0.1c0.3,0,0.9,0,1.8-0.1c0.9-0.1,1.5-0.1,1.9-0.1
		c0.2,0.5,0.4,0.9,0.7,1.4c0.3,0.5,0.7,1.1,1.2,1.7l12.2,15.8c0-1.6,0-3.7,0-6.3c0-5.8-0.1-9-0.2-9.5c-0.2-0.6-0.4-1-0.7-1.2
		c-0.3-0.2-0.9-0.3-1.6-0.3h-0.5v-1.6c1.2,0.1,2.1,0.1,2.8,0.1c0.6,0,1.2,0,1.6,0c0.5,0,1.1,0,1.8,0c0.7,0,1.6-0.1,2.6-0.1v1.6h-0.3
		c-0.7,0-1.2,0.1-1.6,0.3c-0.3,0.2-0.6,0.5-0.7,0.9c-0.2,0.6-0.3,3.3-0.4,8.2v0.3l-0.1,4c0,1.5,0,3,0,4.3c0,1.3,0,2.5,0,3.4
		c0,0.6,0,1.2,0.1,1.7c0,0.6,0.1,1.1,0.2,1.6h-3.3c-0.1-0.3-0.3-0.7-0.6-1c-0.3-0.4-0.7-1.1-1.5-2l-13.4-17.3c0,5.8,0,9.9,0.1,12.4
		c0.1,2.5,0.1,4,0.2,4.4c0.2,0.6,0.4,1,0.7,1.2c0.3,0.2,0.9,0.3,1.7,0.3h0.5v1.6c-1.3-0.1-2.2-0.1-2.9-0.1c-0.6,0-1.2,0-1.6,0
		c-0.4,0-0.8,0-1.5,0c-0.6,0-1.6,0.1-2.9,0.1v-1.6c0.1,0,0.2,0,0.3,0c0.1,0,0.2,0,0.4,0c1.6,0,2.4-2.4,2.4-7.2c0-1.1,0-1.9,0-2.5
		l0-3.9c0-0.8,0-1.9,0-3.4c0-1.5,0-2.4,0-2.8c0-1.2-0.2-2-0.6-2.4c-0.4-0.4-1.1-0.6-2-0.6c-0.1,0-0.2,0-0.3,0c-0.1,0-0.2,0-0.3,0
		V352.7z"/>
	<path class="st0" d="M446.5,352.4c1.2,0.1,2.2,0.1,3,0.1c0.8,0,1.6,0,2.2,0c0.5,0,1.1,0,1.8,0c0.7,0,1.7-0.1,3-0.1v1.7
		c-0.7,0-1.3,0.1-1.6,0.2c-0.3,0.1-0.5,0.4-0.5,0.7c0,0.4,0.2,1.1,0.7,2c0.1,0.2,0.2,0.4,0.3,0.6l3.6,7.3l1.1-2.1
		c2.3-4.5,3.5-7.1,3.5-7.6c0-0.4-0.1-0.6-0.4-0.8c-0.3-0.2-0.6-0.2-1.2-0.2h-0.4v-1.7c1,0.1,1.7,0.1,2.4,0.1c0.6,0,1.1,0,1.5,0
		c0.4,0,1,0,1.6,0c0.6,0,1.4-0.1,2.4-0.1v1.6c0,0-0.1,0-0.1,0c-0.1,0-0.1,0-0.2,0c-1.1,0-2.3,1.4-3.8,4.1c-0.3,0.6-0.6,1.1-0.8,1.5
		l-4.4,8l0,5.9c0,1.6,0.2,2.6,0.5,3.1c0.3,0.5,1,0.7,1.9,0.7c0.1,0,0.2,0,0.3,0c0.2,0,0.3,0,0.3,0v1.7c-1.2-0.1-2.3-0.1-3.2-0.2
		c-0.9,0-1.7-0.1-2.4-0.1c-0.6,0-1.8,0-3.5,0.1c-0.7,0-1.3,0.1-1.8,0.1v-1.7c0.1,0,0.2,0,0.4,0c0.2,0,0.3,0,0.3,0c1,0,1.6-0.2,2-0.7
		c0.3-0.5,0.5-1.5,0.5-2.9l0-5.8l-5.5-10.3c-0.1-0.1-0.2-0.4-0.3-0.6c-1-1.8-1.9-2.6-2.8-2.6c-0.1,0-0.2,0-0.3,0c-0.1,0-0.1,0-0.2,0
		V352.4z"/>
	<path class="st0" d="M335.9,272c-0.6,0-1.6,0.2-2.3,0.3c-1.3,0.2-1.5,0.2-5.3,0.6c-1.3,0.1-3.1,0.1-4.5-0.1L318,272H317
		c-1.4,0-2.1,0.7-2.1,1.9c0,1.2,2,2.2,4,2.4c6.4,0.7,7.5,4,7.5,16.9v1.5l-0.1,12.3c-0.1,12-0.4,18.1-4.2,23.5
		c-3.1,4.5-7.4,7.7-14.8,8c-6.7,0.3-12.6-2.9-15.7-8.9c-2.7-5.2-2.7-9.2-2.7-24.2v-14.9c0-10.4,1.1-13.5,5.2-14.5
		c2.1-0.6,2.3-0.8,2.3-1.9c0-1.2-0.7-1.8-2.2-1.8c-0.4,0-0.7,0-1.1,0.1c-5.2,0.6-8.6,0.8-12.4,0.8c-2.9,0-3.7-0.1-8.5-0.8
		c-0.6-0.1-1.2-0.2-1.7-0.2c-1.5,0-2.3,0.6-2.3,1.7c0,0.9,0.7,2.1,2.3,2.3c6.5,1.4,7.4,2.6,7.4,12.9v24.7v3.8
		c0.2,10.1,2.8,17.2,7.7,21.6c4,3.5,9.9,5.7,17.8,5.5c7.2-0.1,12.3-1.9,16.8-5.3c2.8-2.3,5-5,6.9-8.6c2.7-6.6,3.9-11.1,4.1-23.6
		l0-13.9c0.2-15.1,0.1-15.5,3.7-17l1.5-0.7c0.9-0.3,1.4-1.1,1.4-1.7C337.7,272.7,337.3,272,335.9,272 M297,341.9c0,0-7.2-1.2-11.7-6
		c-3-3.5-4.5-8.7-5.1-16.1c0,0-0.3-5.7-0.3-5.8c-0.1-5.7-0.2-24.9-0.2-24.9c0.2-11.7-2.7-12.6-2.7-12.6s4.5,1.5,4.8,9.8v0.6v2.2
		l0.1,25.4c0.1,4.9,1.1,14.1,3.8,18.7c1.3,2,2.3,3,4.7,4.9C292.9,340.1,297,341.9,297,341.9 M328.4,282.8c-0.1,1.1-0.5,1.7-0.5,1.7
		s0.1-4.1-1.8-6.8c-1.1-1.8-4.8-2.6-4.8-2.6s4.4-1.2,6.4,2.1C328.5,278.5,328.7,280.6,328.4,282.8"/>
	<path class="st0" d="M400.3,323.9c-0.9-0.2-2.5,2.1-4.3,4.3c-9.1,8.8-14.6,9.2-20.3,9.2c-15.6-0.7-23-20.4-23.2-33.2
		c-0.1-19.7,10.2-30.1,21.1-29.1c7.2,0.8,15.1,2.6,22.8,17.7c1,2.8,2.4,4,3.3,4c1,0,0.9-0.5,0.9-2.6c0-1.4-0.7-11-1.3-16.7
		c-0.1-1.4-0.4-3.4-1.3-3.4c-1.5-0.1-2,2.1-2.2,2.5c-0.2,0.4-0.7,0.6-1,0.6c-0.6,0-0.3,0.2-3.5-1.6c-6.9-3.9-12.5-4.8-18-4.8
		c-17.7,0-31.4,16.6-31.7,39.3c-0.3,21.7,12.5,34.3,30.5,34.4c9.5,0.1,17.8-3.4,24.3-10.3c2.7-2.9,5.1-6.9,5.2-8.5
		C401.4,324.6,400.9,324,400.3,323.9 M387.1,277.8c6.7,1.7,9.4,3.3,10,12.2c0,0-2.3-5-4-7C390.8,280.3,387.1,277.8,387.1,277.8
		 M342.7,310.5c0.1-12.6,4.1-19.7,8.3-26.3c2.9-3.9,6.7-6.6,6.7-6.6s-8.8,8.2-11.6,21.3c-2.5,11.4,0.6,24.6,4.2,30.3
		c4.9,7.9,13.9,12.2,17.2,13.9C352,340.8,342.6,328.7,342.7,310.5"/>
	<path class="st0" d="M467.2,339.5c-3-1.3-3.4-2-5.4-3.6c-1.8-1.6-3-4-7.3-10.2c-2.6-3.6-13.4-19.8-13.4-19.8
		c-1.5-2.3-2.3-2.2-2.3-4.8c0-0.8,1.9-2.7,2.9-3.7c1-1.1,5.5-5.7,5.5-5.7s7.5-7.9,10-9.9c2.3-1.8,3.4-2.9,9-5.7
		c1.4-0.4,1.9-1.1,1.8-2.3c-0.1-1.1-0.6-1.7-1.9-1.6c-0.6,0.1-4.8,0.5-4.8,0.5c-1.8,0.3-8.2,0.1-10.2-0.2l-4.3-0.5
		c-1.5-0.1-2,0.9-2,1.8c0,1.1,0.4,2,1.7,2.3c1.6,0.3,3.9,0.8,3.8,2.5c0,1.1,0.1,2.2-5.3,9l-7.2,7.9c-0.6,0.7-5.6,6.2-9,9.4
		c-2.1,2.3-2.8,2.8-3.4,2.8c-0.7,0-1,0.3-1-1.8v-1.3v-20.9c0.5-4.5,1.7-6.2,4.7-7.1c2.6-0.8,2.9-1.4,2.9-2.5c0-1.1-0.3-2.6-3.3-1.8
		c-0.4,0.1-9,0.7-12.1,0.7c-3.2,0-6.9-0.3-10.5-1c-0.7-0.1-1.2-0.1-1.7-0.1c-0.9,0-1.6,1.1-1.6,2.1c0,1.1,0.9,2.2,2.7,2.5
		c6.3,0.1,7.1,2.4,7.7,10.8v40.6c-0.3,8.5-1.7,9.8-5.9,11.6c-1.4,0.4-2.1,1.5-2.1,2.4c0,1.1,0.7,1.8,2,1.8c0.5,0,1,0,1.5-0.1
		c2.3-0.3,7.3-0.7,10.6-0.7c3.1,0,7.5,0.3,10.3,0.6c0.9,0.2,1.5,0.1,2.1,0.1c0.9,0,1.8-0.6,1.8-1.5c0-1.1-0.4-2.4-2-3
		c-5.2-1.3-6.9-3.4-6.9-10.3v-8.8c0-2-0.2-4.8,1.7-6.5c3.3-3.5,3.5-4,4-3.6c0.1,0.1,1.2,1.5,1.2,1.5l5,7.8l5.7,8.7l5.3,7.5l3.3,5.1
		c1.5,2.3,2.2,3.1,4.2,3.1c0.7,0,2.6-0.5,3.7-0.6c2-0.3,3.1,0.3,4.3,0.4c0,0,3.5,0.2,3.7,0.2c1.3,0,2.3-0.7,2.3-1.7
		C469,340.8,468.6,340.1,467.2,339.5 M449.3,275.2c0,0,4.2-1.4,4.8,2.7c0.1,3.1-3.6,5.4-3.6,5.4
		C452.8,279.1,452.8,276.5,449.3,275.2 M416.8,329.7c-0.6,7.7-5.3,9.4-5.3,9.4c1.9-2.5,3-4.4,3.4-9.8c0,0,0.5-33.9,0.2-44.7
		c0-6-4.1-8.4-4.3-8.9c3.6,0.8,6.1,3.5,6.1,10.6L416.8,329.7z M455.7,341.4c-0.5,0.2-1.5,0-2.4-1c-1-1-3.7-4.7-6.4-9.3
		c-3.3-5.4-4.3-6.1-7.4-11.1c-2.1-3.2-4.8-7.3-5.3-8c-2-3.1-2.3-3.6-1.9-4c0.3-0.3,0.8-1,1.3-0.7c0.5,0.3,12.1,17.8,12.1,17.8
		c1.2,1.8,8.3,12.4,10.7,15.5C456.6,341,456.2,341.3,455.7,341.4"/>
	<path class="st0" d="M477.5,332.9c-3,0-5.4,2.3-5.4,5.2c0,3,2.4,5.3,5.4,5.3c3,0,5.3-2.3,5.3-5.3
		C482.9,335.3,480.6,332.9,477.5,332.9 M477.6,342.4c-2.4,0-4.2-1.9-4.2-4.3c0-2.4,1.8-4.3,4.2-4.3c2.4,0,4.1,1.9,4.1,4.3
		C481.7,340.5,479.9,342.4,477.6,342.4"/>
	<path class="st0" d="M479.8,339.7c-0.2-0.8-0.5-1.2-1.1-1.4v-0.1c0.7-0.2,1.2-0.7,1.2-1.3c0-0.6-0.2-1-0.6-1.3
		c-0.4-0.2-0.9-0.4-2-0.4c-1,0-0.6,0-2.3,0l0,5.9h1.3v-2.3h0.6c0.7,0,1.1,0.3,1.2,0.9c0.2,0.7,0.3,1.2,0.5,1.4h1.4
		C480.1,340.9,480,340.6,479.8,339.7 M477.2,337.8h-0.6v-1.7c0.1,0,0.4-0.1,0.7-0.1c0.8,0,1.2,0.4,1.2,0.9
		C478.5,337.6,477.9,337.8,477.2,337.8"/>
	<path class="st0" d="M268.2,339.2c-6.8-1.6-8.3-3.5-8.6-17l-1-41.2v-0.7c0-8.1,0.8-11.9,6.3-13c2-0.5,2.8-1.6,2.9-2.6
		c0-1.8-0.9-2-2.2-2c-0.2,0.1-0.4,0-0.8,0.1l-2.9,0.3c-0.7,0.1-1.9,0.3-4.8,0.2c-1.2,0-3.2-0.7-3.8-0.7c-2.2,0-3,1.8-5.4,7.5
		l-1.2,2.5l-1.1,2.5l-19.1,42l-0.9,2.2c-1.1,2.5-1.8,2.8-2.6,2.8c-0.9,0-2.1-2.8-4.3-8.4l-16.6-38.8l-1.8-4.4l-1.7-4.4
		c-1.2-2.8-1.8-3.5-4.2-3.5c-0.4,0-2.1,0.5-3.9,0.7c-1.5,0.2-3.3,0.1-5.6-0.1c-2.1-0.2-4-0.6-4.5-0.7c-1.9-0.2-2.6,0.7-2.6,2
		s0.8,2.3,3.6,2.9c5.5,1.1,6.6,10,6.7,11.3c0.2,0.8,0,13.6,0,13.6c-0.3,10.8-1,29-1.9,34.2c-2.4,10.8-3.2,10-6.8,12.6
		c-1.7,0.9-2.1,1.9-2.1,3c0,1.1,1.1,1.6,2.5,1.6c0.7,0,1.2,0,2-0.1c3.3-0.4,5.1-0.5,7.6-0.5c2.1,0,4.3,0.1,6.3,0.4l4.5,0.5h0.1
		c1.3,0,2.5-0.5,2.5-1.7c0-0.8-0.1-2.4-1.4-2.9l-2.8-1.1c-4.9-1.8-6.5-4-6.5-15.9v-1.2l0.2-8.7l0.4-8.7l0.2-8.6l0.2-4.5
		c0.1-1.6,0.2-1.6,0.9-1.7c0.9,0,2.9,5.3,2.9,5.3l1.3,3.4l15.9,38.2c2.1,5.3,3,7.1,4.2,7.1c0.9,0,1.5,0,2.8-2.6l21.9-49.1
		c0.6-1.5,1.3-2.3,1.9-2.3c0.9,0,1,0.6,1.1,3.8l0.1,3.1l1.3,33.2v0.6c-0.1,4.8-1.4,7.1-4,8.5c-2.5,1.5-3.7,1.7-3.8,3.4
		c0,1,0.3,2.4,2.9,2.5c5.1-0.6,8.6-1.1,13.1-1.1c5.3,0,6.4,0.5,9.4,0.8c0.4,0.1,0.9,0.1,1.3,0.1c1.3,0,2.7,0,2.9-1.7
		C269.6,340.9,269.4,339.6,268.2,339.2 M187.2,337.7c-2.6,2.6-5,2-5.6,1.9c5.9-4.1,5.8-6.9,6.6-13.9
		C189,326.1,189.8,335.1,187.2,337.7 M218.8,335.1c-0.1,0.5-0.4,0.9-0.9,0.9c-0.8,0.1-1.8-2.2-1.8-2.2l-20.2-48.5
		c-4.6-11.6-8.2-16.1-10.9-18.3c0.3-0.1,7.1,1.6,14.6,21l18.8,45.2C218.4,333.3,218.9,334.6,218.8,335.1 M251.4,334.3
		c-1,4.4-4.9,5.1-4.9,5.1s3.3-3.3,3.3-7.1c-0.3-17.1-1.8-45.6-1.9-52c0.4-9.4,3.3-10,3.3-10s-0.7,5.3-0.8,8.9
		C250.4,282.9,253.1,329.8,251.4,334.3"/>
	<path class="st0" d="M353.1,246.5c-0.4-0.1-0.7-0.5-0.8-0.8c-0.1-0.3-0.1-0.7-0.1-1.2l0-1.9l0-5c0-0.9-0.1-1.6-0.2-2.2
		c-0.1-0.6-0.3-1.1-0.5-1.5c-0.2-0.5-0.6-0.8-1-1.1c-0.5-0.4-1.1-0.6-1.5-0.7c-0.5-0.1-1.1-0.2-1.7-0.2c-0.6,0-1.1,0.1-1.6,0.3
		c-0.8,0.4-2.4,1.3-3.5,2.2l-0.1,0l0.3-2.9c0,0-1.9,0.7-3,1c-1.4,0.4-2.9,0.4-2.9,0.4l0.3,1.4c0.6-0.4,1.4-0.1,1.6,0
		c0.1,0.2,0.3,0.4,0.3,0.7c0.1,0.8,0.2,1.9,0.2,3l-0.2,4.7h0l0,1.9c0,0.5,0,0.9-0.1,1.2c-0.1,0.3-0.4,0.7-0.8,0.8
		c-0.5,0.1-0.5,0.1-1.3,0.1l0,1.4c0,0,2.8-0.2,3.9-0.2c1.1,0,3.7,0.2,3.7,0.2l0-1.4c-0.8,0-0.6,0-1.1-0.1c-0.4-0.1-0.7-0.5-0.8-0.8
		c-0.1-0.3-0.1-0.7-0.1-1.2l0-1.9h0l0-6.5c0,0,1.1-0.7,2.1-1.2c0.8-0.4,1.4-0.3,1.7-0.3c1.2,0,2.2,0.3,2.7,2.1
		c0.1,0.8,0.2,1.4,0.2,2.9l0,3h0l0,1.9c0,0.5,0,0.9-0.1,1.2c-0.1,0.3-0.4,0.7-0.8,0.8c-0.5,0.1-0.5,0.1-1.3,0.1l0,1.4
		c0,0,2.7-0.2,3.8-0.2c1.1,0,3.7,0.2,3.7,0.2l0-1.4C353.3,246.5,353.5,246.5,353.1,246.5"/>
	<path class="st0" d="M379,246.3c-0.4-0.1-0.7-0.5-0.8-0.8c-0.1-0.3-0.1-0.7-0.1-1.2l0-4.3l0.2-16.6c0,0-1.9,0.7-3,1
		c-1.4,0.4-3.1,0.5-3.1,0.5l0.3,1.4c0.6-0.4,1.6-0.1,1.8,0c0.1,0.2,0.3,0.4,0.3,0.7c0.1,0.8,0.2,10,0.2,11l0,1.5l0,0l-0.1,4.8
		c0,0.5,0,0.9-0.1,1.2c-0.1,0.3-0.4,0.7-0.8,0.8c-0.5,0.1-0.5,0.1-1.5,0.1l0,1.4c0,0,3.1-0.2,4.2-0.2c1.1,0,3.8,0.2,3.8,0.2l0-1.4
		C379.3,246.4,379.5,246.4,379,246.3"/>
	<path class="st0" d="M294.2,232.5c-0.4-0.4-1-0.6-1.6-0.6c-0.9,0-1.4,0.6-2.2,1.3c-0.5,0.5-1.1,1.4-1.6,2.2l0.1-3.8
		c0,0-1.9,0.7-3,1c-1.4,0.4-3.1,0.5-3.1,0.5l0.3,1.4c0.6-0.4,1.6-0.1,1.8,0c0.1,0.2,0.3,0.4,0.3,0.7c0.1,0.8,0.2,1.9,0.2,3l0,1.5
		l0,0l-0.1,4.8c0,0.5,0,0.9-0.1,1.2c-0.1,0.3-0.4,0.7-0.8,0.8c-0.5,0.1-0.5,0.1-1.5,0.1v1.4c0,0,3.1-0.2,4.2-0.2
		c1.1,0,4.4,0.2,4.4,0.2v-1.4c-0.9,0-1.3,0-1.7-0.1c-0.4-0.1-0.7-0.5-0.8-0.8c-0.1-0.3-0.1-0.7-0.1-1.2l0-4.3l0.1-2.7
		c0.4-0.9,2.5-3,3.8-2.1c0.5,0.3,0.4,0.3,0.8,0.3c1.1,0,1.3-0.7,1.3-1.7C294.8,233.4,294.6,232.9,294.2,232.5"/>
	<path class="st0" d="M369.9,245.1l0.8,1.3c-0.9,0.6-1.8,1.1-2.5,1.4c-0.8,0.3-1.4,0.5-1.8,0.5c-0.8,0-1.3-0.1-1.7-0.5
		c-0.4-0.4-0.6-0.9-0.6-1.7c-1.4,0.9-3.2,2.2-4.2,2.2c-1.2,0-2.1-0.4-2.9-1.3c-0.8-0.8-1.3-1.8-1.3-3c0-2,1.1-3.6,6-4.6
		c1.2-0.2,1.7-0.4,2.3-0.6c0-0.2,0-0.5,0-0.8c0.1-1.7,0-2.9-0.7-3.4c-1.4-1.1-3.9-0.2-4,1.1c0,0.1,0,0.1,0,0.2c0,0.1,0,0.2,0,0.2
		c0,0.3-0.2,0.6-0.6,0.8c-0.4,0.2-0.8,0.3-1.3,0.3c-0.4,0-0.8-0.1-1-0.2c-0.2-0.1-0.3-0.3-0.3-0.6c0-0.9,0.8-2.3,2.5-3.4
		c2.7-2.1,6.8-1.2,7.6-0.4c0.9,0.8,1.3,2.1,1.3,3.7c0,0.9-0.1,2.2-0.2,4c-0.1,1.8-0.2,3.2-0.2,4.1c0,0.7,0.1,1.2,0.3,1.4
		C367.7,246.2,369.3,246,369.9,245.1 M364.1,240.4c-0.2,0.1-0.6,0.1-1.1,0.2c-4,1-4.6,1.7-4.6,3c0,0.7,0.3,1.1,0.8,1.5
		c0.5,0.5,1.8,0.6,2.4,0.3c0.7-0.2,1.5-0.6,2.4-1.2L364.1,240.4z"/>
	<path class="st0" d="M303.7,246.5c-0.4-0.1-0.7-0.5-0.8-0.8c-0.1-0.3-0.1-0.7-0.1-1.2l0-4.3l0.2-8.5c0,0-1.9,0.7-3,1
		c-1.4,0.4-3.1,0.5-3.1,0.5l0.3,1.4c0.6-0.4,1.6-0.1,1.8,0c0.1,0.2,0.3,0.4,0.3,0.7c0.1,0.8,0.2,1.9,0.2,3l0,1.5l0,0l-0.1,4.8
		c0,0.5,0,0.9-0.1,1.2c-0.1,0.3-0.4,0.7-0.8,0.8c-0.5,0.1-0.5,0.1-1.5,0.1l0,1.4c0,0,3.1-0.2,4.2-0.2c1.1,0,3.8,0.2,3.8,0.2l0-1.4
		C304,246.6,304.2,246.6,303.7,246.5"/>
	<path class="st0" d="M300.8,223.9l1.4,1c0.4,0.3,0.6,0.5,0.8,0.8c0.2,0.3,0.2,0.5,0.2,0.8c0,0.3-0.1,0.5-0.2,0.8
		c-0.1,0.2-0.4,0.5-0.7,0.7l-1.4,1.1l-1.3-1c-0.4-0.3-0.6-0.6-0.8-0.8c-0.2-0.2-0.2-0.5-0.2-0.8c0-0.3,0.1-0.5,0.2-0.7
		c0.1-0.2,0.4-0.5,0.8-0.8L300.8,223.9z"/>
	<path class="st0" d="M332.7,246.5c-0.4-0.1-0.7-0.5-0.8-0.8c-0.1-0.3-0.1-0.7-0.1-1.2l0-4.3l0.2-8.5c0,0-1.9,0.7-3,1
		c-1.4,0.4-3.1,0.5-3.1,0.5l0.3,1.4c0.6-0.4,1.6-0.1,1.8,0c0.1,0.2,0.3,0.4,0.3,0.7c0.1,0.8,0.2,1.9,0.2,3l0,1.5l0,0l-0.1,4.8
		c0,0.5,0,0.9-0.1,1.2c-0.1,0.3-0.4,0.7-0.8,0.8c-0.5,0.1-0.5,0.1-1.5,0.1l0,1.4c0,0,3.1-0.2,4.2-0.2c1.1,0,3.8,0.2,3.8,0.2l0-1.4
		C333,246.5,333.1,246.5,332.7,246.5"/>
	<path class="st0" d="M329.8,223.8l1.4,1c0.4,0.3,0.6,0.5,0.8,0.8c0.2,0.3,0.2,0.5,0.2,0.8c0,0.3-0.1,0.5-0.2,0.8
		c-0.1,0.2-0.4,0.5-0.7,0.7l-1.4,1.1l-1.3-1c-0.4-0.3-0.6-0.6-0.8-0.8c-0.2-0.2-0.2-0.5-0.2-0.8c0-0.3,0.1-0.5,0.2-0.7
		c0.1-0.2,0.4-0.5,0.8-0.8L329.8,223.8z"/>
	<path class="st0" d="M280.2,231.7c-0.7-1.5-1.6-2.9-2.8-4.1c-1-1-2.2-1.7-3.4-2.1c-1.3-0.5-2.7-0.7-4.3-0.7c-1.5,0-2.9,0.3-4.2,0.8
		c-1.4,0.5-2.6,1.3-3.7,2.3c-1.2,1.1-1.8,2.4-2.4,3.9c-0.6,1.5-0.9,3.1-0.9,4.8c0,1.6,0.2,3.1,0.7,4.5c0.5,1.4,1.3,2.7,2.3,3.8
		c1.1,1.2,2.1,2.1,3.5,2.7c1.4,0.6,3,0.9,4.7,0.9c1.4,0,2.7-0.3,4.1-0.8c1.4-0.5,2.5-1.2,3.6-2.1c1.3-1.1,2.3-2.5,2.9-4.1
		c0.7-1.6,1-3.2,1-5C281.2,234.8,280.8,233.2,280.2,231.7 M274.7,243.6c-1.3,1.6-2.8,2.4-4.8,2.3c-2.1,0-3.7-1-5.1-2.9
		c-1.4-1.9-2-4.3-2-7.3c0-2.6,0.6-4.7,1.8-6.3c1.3-1.6,2.9-2.3,5-2.3c2.1,0,3.9,1,5.2,2.9c1.4,1.9,1.9,4.2,1.8,7.1
		C276.6,239.9,276,242,274.7,243.6"/>
	<path class="st0" d="M323.5,233.2l-0.2-0.4c-0.8,0.1-1.9,0.1-3.3,0.1h-1.4c-0.7-0.5-1.3-0.9-1.9-1.1c-0.6-0.2-1.4-0.3-2.2-0.3
		c-1.3,0-2.7,0.3-4.1,1c-1.1,0.5-2,1.3-2.5,2.2c-0.6,0.9-0.9,1.9-0.9,3.1c0,1.3,0.4,2.3,1.2,3.1c0.5,0.5,1.2,0.9,2.1,1.2
		c0,0,0,0.1,0,0.1c0,0.5-1.7,1.6-2.3,1.9c-0.4,0.2-0.6,0.5-0.6,0.9c0,1.4,1.1,2.5,2.3,2.9c0.3,0.1,0.1,0.6-0.2,0.8
		c-0.5,0.5-1.9,1.2-2.2,1.6c-0.4,0.5-0.5,1-0.5,1.5c0,1.8,1.6,4.2,6.6,4.2c3,0,5.3-1.1,6.8-2.3c1-0.7,2.2-2.5,2.2-4.3
		c0-3.8-3.2-4.3-5.8-4.3c-1.5,0-2.9,0.1-3.9,0.1c-1.4,0-1.9-0.7-1.9-1.4c0-0.2,0-0.3,0.1-0.5c0.2-0.2,0.6-0.6,1.2-0.9l0.8,0
		c1.3,0,2.5-0.3,3.6-0.8c1.1-0.6,2-1.3,2.6-2.2c0.6-0.9,0.9-1.9,0.9-2.8c0-0.5-0.1-1-0.4-1.7h3.1
		C322.9,234.2,323.2,233.7,323.5,233.2 M311.3,248.6c0.4-0.3,1.2-0.4,2.4-0.4h2c2.2,0,3.8,0.9,3.8,2.7c0,2-1.7,3.3-4.7,3.3
		c-2.7,0-4.6-1.4-4.6-3.6C310.2,249.7,310.7,249.1,311.3,248.6 M316,240.1c-0.6,0.7-1.5,1-2.5,1c-1,0-1.9-0.4-2.5-1.2
		c-0.7-0.8-1-1.9-1-3.3c0-1.2,0.3-2.1,0.9-2.7c0.6-0.7,1.4-1,2.5-1c1,0,1.9,0.4,2.6,1.2c0.7,0.8,1,1.9,1,3.2
		C316.9,238.5,316.6,239.5,316,240.1"/>
	<path class="st0" d="M190.4,364.5c2.2-0.7,4.7-2.6,4.7-5.9c0-2.3-1.3-4.2-2.7-5.2c-1-0.7-2.1-1.1-4.2-1.1l-1.5,0.1
		c-1,0-2.8,0.2-4.6,0.2c-0.1,0-2.3,0-3-0.1c-0.8,0-1.6-0.1-2.5-0.2v1.7h0.3c0.8,0,1.4,0.2,1.7,0.6c0.4,0.4,0.5,1.1,0.5,2v6.5l0,4.5
		c0,0.4,0,0.8,0,1.2c0,0.4,0,1,0,1.7v1.6c0,2.2-0.2,3.5-0.5,4.2c-0.3,0.6-0.9,0.9-1.8,0.9c-0.2,0-0.3,0-0.4,0c-0.1,0-0.2,0-0.3,0
		v1.6c1.3-0.1,2.3-0.1,3.1-0.2c0.8,0,2.1-0.1,2.5-0.1c0.5,0,2.8,0,3.6,0l1.5,0c3,0,4.9-0.2,6.9-1.9c2-1.7,2.8-3.3,2.9-5.7
		C197,366.1,193,364.6,190.4,364.5 M183.8,355.1c1-0.2,2.3-0.2,3.1-0.2c1.9,0,4.3,1.2,4,4.7c-0.2,1.6-0.8,3.7-5.3,3.9
		c-0.7,0-1.2,0.1-1.8,0C183.8,363.5,183.6,356.6,183.8,355.1 M186.7,375.8c-0.7,0-1.9-0.1-3-0.3c0-0.4,0-9.5,0-9.5
		c0.8,0,1.6-0.1,2.3-0.1c2.1,0,6.3,1.1,6.3,4.4C192.3,375.1,188.9,375.8,186.7,375.8"/>
</g>
</svg>
