<?xml version="1.0" encoding="UTF-8" standalone="no"?>
<svg width="60px" height="60px" viewBox="0 0 60 60" version="1.1" xmlns="http://www.w3.org/2000/svg" xmlns:xlink="http://www.w3.org/1999/xlink" xmlns:sketch="http://www.bohemiancoding.com/sketch/ns">
    <!-- Generator: Sketch 3.4 (15575) - http://www.bohemiancoding.com/sketch -->
    <title>shop</title>
    <desc>Created with Sketch.</desc>
    <defs></defs>
    <g id="Shopping" stroke="none" stroke-width="1" fill="none" fill-rule="evenodd" sketch:type="MSPage">
        <g id="Icon-2" sketch:type="MSArtboardGroup" fill="#272727">
            <path d="M60,59 C60,59.552 59.552,60 59,60 L1,60 C0.448,60 0,59.552 0,59 C0,58.448 0.448,58 1,58 L2,58 L2,26.5 C2,25.948 2.448,25.5 3,25.5 C3.552,25.5 4,25.948 4,26.5 L4,58 L56,58 L56,26.5 C56,25.948 56.448,25.5 57,25.5 C57.552,25.5 58,25.948 58,26.5 L58,58 L59,58 C59.552,58 60,58.448 60,59 L60,59 Z M19,42 C19.552,42 20,42.448 20,43 L20,45 C20,45.552 19.552,46 19,46 C18.448,46 18,45.552 18,45 L18,43 C18,42.448 18.448,42 19,42 L19,42 Z M45.707,40.293 C46.098,40.684 46.098,41.316 45.707,41.707 C45.512,41.902 45.256,42 45,42 C44.744,42 44.488,41.902 44.293,41.707 L40.293,37.707 C39.902,37.316 39.902,36.684 40.293,36.293 C40.684,35.902 41.316,35.902 41.707,36.293 L45.707,40.293 Z M47.707,36.293 C48.098,36.684 48.098,37.316 47.707,37.707 C47.512,37.902 47.256,38 47,38 C46.744,38 46.488,37.902 46.293,37.707 L44.293,35.707 C43.902,35.316 43.902,34.684 44.293,34.293 C44.684,33.902 45.316,33.902 45.707,34.293 L47.707,36.293 Z M28,32 L50,32 L50,50 L28,50 L28,32 Z M51,52 C51.552,52 52,51.552 52,51 L52,31 C52,30.448 51.552,30 51,30 L27,30 C26.448,30 26,30.448 26,31 L26,51 C26,51.552 26.448,52 27,52 L51,52 Z M22,55 L22,32 L10,32 L10,55 C10,55.552 9.552,56 9,56 C8.448,56 8,55.552 8,55 L8,31 C8,30.448 8.448,30 9,30 L23,30 C23.552,30 24,30.448 24,31 L24,55 C24,55.552 23.552,56 23,56 C22.448,56 22,55.552 22,55 L22,55 Z M58,21.464 C56.793,20.764 56,19.455 56,18 L56,5 C56,4.448 55.552,4 55,4 C54.448,4 54,4.448 54,5 L54,18 C54,20.206 52.206,22 50,22 C47.794,22 46,20.206 46,18 L46,5 C46,4.448 45.552,4 45,4 C44.448,4 44,4.448 44,5 L44,18 C44,20.206 42.206,22 40,22 C37.794,22 36,20.206 36,18 L36,5 C36,4.448 35.552,4 35,4 C34.448,4 34,4.448 34,5 L34,18 C34,20.206 32.206,22 30,22 C27.794,22 26,20.206 26,18 L26,5 C26,4.448 25.552,4 25,4 C24.448,4 24,4.448 24,5 L24,18 C24,20.206 22.206,22 20,22 C17.794,22 16,20.206 16,18 L16,5 C16,4.448 15.552,4 15,4 C14.448,4 14,4.448 14,5 L14,18 C14,20.206 12.206,22 10,22 C7.794,22 6,20.206 6,18 L6,5 C6,4.448 5.552,4 5,4 C4.448,4 4,4.448 4,5 L4,18 C4,19.455 3.207,20.764 2,21.464 L2,5 C2,3.346 3.346,2 5,2 L55,2 C56.654,2 58,3.346 58,5 L58,21.464 Z M55,0 L5,0 C2.243,0 0,2.243 0,5 L0,22.899 C0,23.2 0.135,23.484 0.367,23.674 C0.599,23.863 0.906,23.939 1.199,23.879 C2.796,23.555 4.142,22.602 4.999,21.311 C6.074,22.931 7.915,24 10,24 C12.084,24 13.924,22.932 15,21.313 C16.076,22.932 17.916,24 20,24 C22.084,24 23.924,22.932 25,21.313 C26.076,22.932 27.916,24 30,24 C32.084,24 33.924,22.932 35,21.313 C36.076,22.932 37.916,24 40,24 C42.084,24 43.924,22.932 45,21.313 C46.076,22.932 47.916,24 50,24 C52.085,24 53.926,22.931 55.001,21.311 C55.858,22.602 57.204,23.555 58.801,23.879 C59.096,23.94 59.4,23.864 59.633,23.674 C59.865,23.484 60,23.2 60,22.899 L60,5 C60,2.243 57.757,0 55,0 L55,0 Z" id="shop" sketch:type="MSShapeGroup"></path>
        </g>
    </g>
</svg>